<?xml version="1.0" encoding="utf-8"?>
<!-- Generator: Adobe Illustrator 21.1.0, SVG Export Plug-In . SVG Version: 6.00 Build 0)  -->
<svg version="1.1" id="Layer_1" xmlns="http://www.w3.org/2000/svg" xmlns:xlink="http://www.w3.org/1999/xlink" x="0px" y="0px"
	 viewBox="0 0 80 80" style="enable-background:new 0 0 80 80;" xml:space="preserve">
<style type="text/css">
	.st0{fill:none;stroke:#2C5BBA;stroke-width:5;stroke-linecap:round;stroke-linejoin:round;stroke-miterlimit:10;}
</style>
<g>
	<g>
		<path class="st0" d="M33.1,48.1c0,2.6,0.7,4.6,2.1,6c1.4,1.4,3.2,2.2,5.5,2.2c1.8,0,3.2-0.5,4.4-1.5c1.2-1,1.8-2.4,1.8-4
			c0-0.9-0.2-1.7-0.6-2.4c-0.4-0.7-0.9-1.2-1.6-1.7c-0.7-0.5-1.4-0.9-2.3-1.3c-0.9-0.4-1.9-0.8-2.9-1.2c-2.2-0.8-4.2-1.6-6.2-2.4
			c-2-0.8-3.7-1.8-5.1-2.9c-1.4-1.2-2.6-2.5-3.5-4.2c-0.9-1.6-1.3-3.6-1.3-6c0-2.2,0.5-4.1,1.4-5.8c0.9-1.7,2.2-3.1,3.7-4.2
			c1.5-1.1,3.3-2,5.3-2.5c2-0.6,4.1-0.8,6.3-0.8c2.8,0,5.3,0.4,7.4,1.2c2.1,0.8,3.9,1.9,5.3,3.3c1.4,1.4,2.4,3,3.2,4.8
			c0.7,1.8,1,3.7,1,5.8h-11c0-2.1-0.5-3.8-1.5-5s-2.5-1.8-4.4-1.8c-1.6,0-2.9,0.4-4.1,1.2c-1.1,0.8-1.7,2-1.7,3.7
			c0,1.6,0.6,2.8,1.9,3.8c1.2,0.9,2.9,1.8,4.9,2.5c1.9,0.7,3.9,1.4,5.9,2.2c2,0.8,3.8,1.8,5.4,2.9c1.6,1.2,2.9,2.6,3.9,4.2
			c1,1.6,1.5,3.6,1.5,6c0,2.4-0.4,4.6-1.3,6.5c-0.9,1.9-2.1,3.5-3.7,4.8c-1.6,1.3-3.5,2.3-5.6,2.9c-2.2,0.7-4.6,1-7.2,1
			c-2.5,0-4.9-0.4-7.1-1.1c-2.2-0.7-4.1-1.8-5.7-3.3c-1.6-1.4-2.9-3.2-3.8-5.3c-0.9-2.1-1.4-4.5-1.4-7.2H33.1z"/>
	</g>
	<line class="st0" x1="40.2" y1="15.1" x2="40.2" y2="5.9"/>
	<line class="st0" x1="40.2" y1="75.1" x2="40.2" y2="65.9"/>
</g>
</svg>
