<?xml version="1.0" standalone="no"?><!DOCTYPE svg PUBLIC "-//W3C//DTD SVG 1.1//EN" "http://www.w3.org/Graphics/SVG/1.1/DTD/svg11.dtd" ><svg xmlns="http://www.w3.org/2000/svg"><metadata>Generated by Glyphter</metadata><defs><font id="Glyphter" horiz-adv-x="0"><font-face units-per-em="1024" ascent="1024" descent="0" font-family="Glyphter" font-weight="normal" /><missing-glyph horiz-adv-x="0" /><glyph unicode="&#x0041;" d="M899.009,517.547C899.009,517.547,899.009,321.991,899.009,321.991C899.009,321.991,125.889,321.991,125.889,321.991C125.889,321.991,125.889,495.787,125.889,495.787C125.889,495.787,69,495.787,69,495.787C69,495.787,69,0,69,0C69,0,955.898,0,955.898,0C955.898,0,955.898,517.547,955.898,517.547C955.898,517.547,899.009,517.547,899.009,517.547M125.889,56.889C125.889,56.889,125.889,265.102,125.889,265.102C125.889,265.102,899.009,265.102,899.009,265.102C899.009,265.102,899.009,56.889,899.009,56.889C899.009,56.889,125.889,56.889,125.889,56.889M284.751,796.302C284.751,796.302,325,756.053,325,756.053C325,756.053,487.56,918.613,487.56,918.613C487.56,918.613,487.56,432.071,487.56,432.071C487.56,432.071,544.449,432.071,544.449,432.071C544.449,432.071,544.449,911.502,544.449,911.502C544.449,911.502,699.898,756.053,699.898,756.053C699.898,756.053,740.147,796.302,740.147,796.302C740.147,796.302,512.449,1024,512.449,1024C512.449,1024,284.751,796.302,284.751,796.302C284.751,796.302,284.751,796.302,284.751,796.302" class="icon-icons_ upload-icon"/><glyph unicode="&#x0042;" d="M418.313,1024C192.718,1024.115,51.597,779.962,164.301,584.534C184.193,550.047,210.887,519.965,242.791,496.141C156.221,448.752,102.273,358.034,102,259.337C102,259.337,102,0,102,0C102,0,202.463,0,202.463,0C202.463,0,202.463,57.407,202.463,57.407C202.463,57.407,159.407,57.407,159.407,57.407C159.407,57.407,159.407,259.337,159.407,259.337C159.766,350.284,217.819,430.984,303.93,460.262C511.858,372.156,737.181,542.167,709.525,766.285C691.399,913.161,566.725,1023.526,418.744,1023.713C418.744,1023.713,418.313,1024,418.313,1024M418.313,494.706C236.677,494.706,123.169,691.326,213.987,848.621C304.791,1005.917,531.836,1005.917,622.64,848.621C643.349,812.756,654.257,772.069,654.257,730.649C654.099,600.407,548.556,494.864,418.313,494.706C418.313,494.706,418.313,494.706,418.313,494.706M502.558,215.277C502.558,215.277,365.068,215.277,365.068,215.277C365.068,215.277,365.068,351.906,365.068,351.906C365.068,351.906,295.032,351.906,295.032,351.906C295.032,351.906,295.032,4.736,295.032,4.736C295.032,4.736,365.068,4.736,365.068,4.736C365.068,4.736,365.068,156.578,365.068,156.578C365.068,156.578,502.558,156.578,502.558,156.578C502.558,156.578,502.558,4.736,502.558,4.736C502.558,4.736,572.595,4.736,572.595,4.736C572.595,4.736,572.595,351.906,572.595,351.906C572.595,351.906,502.558,351.906,502.558,351.906C502.558,351.906,502.558,215.277,502.558,215.277C502.558,215.277,502.558,215.277,502.558,215.277M852.885,351.906C852.885,351.906,852.885,215.277,852.885,215.277C852.885,215.277,715.539,215.277,715.539,215.277C715.539,215.277,715.539,351.906,715.539,351.906C715.539,351.906,645.359,351.906,645.359,351.906C645.359,351.906,645.359,4.736,645.359,4.736C645.359,4.736,715.539,4.736,715.539,4.736C715.539,4.736,715.539,156.578,715.539,156.578C715.539,156.578,852.885,156.578,852.885,156.578C852.885,156.578,852.885,4.736,852.885,4.736C852.885,4.736,922.922,4.736,922.922,4.736C922.922,4.736,922.922,351.906,922.922,351.906C922.922,351.906,852.885,351.906,852.885,351.906C852.885,351.906,852.885,351.906,852.885,351.906" class="icon-icons_add-hh-member-icon"/><glyph unicode="&#x0043;" d="M1016.729,270.676C1016.729,270.676,802.094,270.676,802.094,270.676C802.094,270.676,802.094,485.311,802.094,485.311C802.094,485.311,746.053,485.311,746.053,485.311C746.053,485.311,746.053,270.676,746.053,270.676C746.053,270.676,531.418,270.676,531.418,270.676C531.418,270.676,531.418,214.635,531.418,214.635C531.418,214.635,746.053,214.635,746.053,214.635C746.053,214.635,746.053,0,746.053,0C746.053,0,802.094,0,802.094,0C802.094,0,802.094,214.635,802.094,214.635C802.094,214.635,1016.729,214.635,1016.729,214.635C1016.729,214.635,1016.729,270.676,1016.729,270.676C1016.729,270.676,1016.729,270.676,1016.729,270.676M792.147,718.019C792.147,718.019,833.617,585.623,833.617,585.623C833.617,585.623,887.135,602.435,887.135,602.435C887.135,602.435,815.123,832.061,815.123,832.061C815.123,832.061,585.497,760.049,585.497,760.049C585.497,760.049,602.309,706.671,602.309,706.671C602.309,706.671,747.034,751.923,747.034,751.923C747.034,751.923,589.14,472.281,589.14,472.281C589.14,472.281,447.358,631.156,447.358,631.156C447.358,631.156,254.858,323.494,254.858,323.494C254.858,323.494,151.183,387.94,151.183,387.94C151.183,387.94,64.04,270.255,64.04,270.255C64.04,270.255,64.04,967.96,64.04,967.96C64.04,967.96,780.238,967.96,780.238,967.96C780.238,967.96,780.238,1024,780.238,1024C780.238,1024,8,1024,8,1024C8,1024,8,100.312,8,100.312C8,100.312,165.474,313.126,165.474,313.126C165.474,313.126,272.791,246.298,272.791,246.298C272.791,246.298,455.203,538.129,455.203,538.129C455.203,538.129,599.367,376.592,599.367,376.592C599.367,376.592,792.147,718.019,792.147,718.019C792.147,718.019,792.147,718.019,792.147,718.019" class="icon-icons_add-new-quota-icon"/><glyph unicode="&#x0044;" d="M1011.31,459.272C1011.172,555.038,933.561,632.648,837.795,632.787C837.795,632.787,837.795,582.529,837.795,582.529C932.682,582.529,991.986,479.815,944.543,397.644C922.517,359.511,881.834,336.015,837.795,336.015C837.795,336.015,837.795,285.757,837.795,285.757C933.561,285.896,1011.172,363.506,1011.31,459.272C1011.31,459.272,1011.31,459.272,1011.31,459.272M986.809,297.945C986.809,297.945,948.236,265.654,948.236,265.654C964.62,245.777,973.504,220.799,973.365,195.042C973.365,195.042,973.365,90.758,973.365,90.758C973.365,90.758,806.259,90.758,806.259,90.758C806.259,90.758,806.259,278.47,806.259,278.47C805.919,370.354,755.021,454.573,673.83,497.593C840.396,621.114,810.794,878.622,620.531,961.12C430.281,1043.618,222.063,889.214,245.76,683.208C254.316,608.738,293.517,541.205,353.94,496.84C273.666,453.48,223.534,369.7,223.27,278.47C223.27,278.47,223.27,90.758,223.27,90.758C223.27,90.758,50.509,90.758,50.509,90.758C50.509,90.758,50.509,195.042,50.509,195.042C50.547,220.875,59.656,245.865,76.266,265.654C76.266,265.654,37.693,297.945,37.693,297.945C13.444,269.135,0.101,232.698,0,195.042C0,195.042,0,40.5,0,40.5C0,40.5,1024,40.5,1024,40.5C1024,40.5,1024,195.042,1024,195.042C1024.038,232.635,1010.883,269.059,986.809,297.945C986.809,297.945,986.809,297.945,986.809,297.945M294.259,713.45C294.158,882.228,476.807,987.819,623.019,903.512C769.244,819.205,769.357,608.236,623.245,523.765C589.849,504.454,551.955,494.302,513.382,494.327C392.424,494.465,294.397,592.492,294.259,713.45C294.259,713.45,294.259,713.45,294.259,713.45M676.468,90.758C676.468,90.758,273.527,90.758,273.527,90.758C273.527,90.758,273.527,278.47,273.527,278.47C273.779,363.179,327.78,438.377,407.967,465.68C475.588,436.618,552.181,436.618,619.803,465.68C700.73,439.043,755.574,363.669,756.001,278.47C756.001,278.47,756.001,90.758,756.001,90.758C756.001,90.758,676.468,90.758,676.468,90.758M186.707,285.757C186.707,285.757,186.707,336.015,186.707,336.015C91.821,336.015,32.517,438.729,79.96,520.9C101.985,559.033,142.669,582.529,186.707,582.529C186.707,582.529,186.707,632.787,186.707,632.787C53.135,632.787,-30.343,488.195,36.437,372.515C67.433,318.827,124.714,285.757,186.707,285.757C186.707,285.757,186.707,285.757,186.707,285.757" class="icon-icons_all-icon"/><glyph unicode="&#x0045;" d="M884.802,466.242C884.802,466.242,540.309,121.748,540.309,121.748C540.309,121.748,374.451,313.713,374.451,313.713C374.451,313.713,332.815,277.849,332.815,277.849C332.815,277.849,537.423,41.086,537.423,41.086C537.423,41.086,923.69,427.354,923.69,427.354C923.69,427.354,884.802,466.242,884.802,466.242C884.802,466.242,884.802,466.242,884.802,466.242M155.965,706.851C155.965,706.851,843.029,706.851,843.029,706.851C843.029,706.851,843.029,572.462,843.029,572.462C843.029,572.462,897.994,572.462,897.994,572.462C897.994,572.462,897.994,1024,897.994,1024C897.994,1024,101,1024,101,1024C101,1024,101,1.924,101,1.924C101,1.924,375.826,0,375.826,0C375.826,0,375.826,54.965,375.826,54.965C375.826,54.965,155.965,56.477,155.965,56.477C155.965,56.477,155.965,706.851,155.965,706.851M843.029,969.035C843.029,969.035,843.029,761.816,843.029,761.816C843.029,761.816,155.965,761.816,155.965,761.816C155.965,761.816,155.965,969.035,155.965,969.035C155.965,969.035,843.029,969.035,843.029,969.035" class="icon-icons_approve-icon"/><glyph unicode="&#x0046;" d="M141.61,392.767C141.61,392.767,358.894,392.767,358.894,392.767C502.226,392.921,618.387,509.082,618.541,652.414C618.541,652.414,618.541,742.33,618.541,742.33C618.541,742.33,760.078,600.793,760.078,600.793C760.078,600.793,799.635,640.491,799.635,640.491C799.635,640.491,586.979,853.287,586.979,853.287C586.979,853.287,374.184,640.491,374.184,640.491C374.184,640.491,413.881,600.793,413.881,600.793C413.881,600.793,562.432,749.344,562.432,749.344C562.432,749.344,562.432,652.414,562.432,652.414C562.277,540.069,471.239,449.031,358.894,448.877C358.894,448.877,141.61,448.877,141.61,448.877C141.61,448.877,141.61,967.89,141.61,967.89C141.61,967.89,842.979,967.89,842.979,967.89C842.979,967.89,842.979,556.607,842.979,556.607C842.979,556.607,899.089,556.607,899.089,556.607C899.089,556.607,899.089,1024,899.089,1024C899.089,1024,85.5,1024,85.5,1024C85.5,1024,85.5,0,85.5,0C85.5,0,336.31,0,336.31,0C336.31,0,336.31,56.11,336.31,56.11C336.31,56.11,141.61,56.11,141.61,56.11C141.61,56.11,141.61,392.767,141.61,392.767M899.65,452.664C899.65,452.664,547.983,100.997,547.983,100.997C547.983,100.997,378.673,296.96,378.673,296.96C378.673,296.96,336.17,260.348,336.17,260.348C336.17,260.348,545.038,18.656,545.038,18.656C545.038,18.656,939.348,412.967,939.348,412.967C939.348,412.967,899.65,452.664,899.65,452.664C899.65,452.664,899.65,452.664,899.65,452.664" class="icon-icons_approve-mtc-deviation-icon"/><glyph unicode="&#x0047;" d="M965.937,599.306C965.797,732.721,857.685,840.833,724.269,840.974C724.269,840.974,724.269,789.881,724.269,789.881C870.969,789.881,962.667,631.072,889.311,504.018C855.27,445.057,792.35,408.73,724.269,408.73C724.269,408.73,724.269,357.637,724.269,357.637C857.685,357.778,965.797,465.89,965.937,599.306C965.937,599.306,965.937,599.306,965.937,599.306M932.727,357.254C932.727,357.254,893.641,324.427,893.641,324.427C919.443,293.593,933.595,254.66,933.621,214.45C933.621,214.45,933.621,51.593,933.621,51.593C933.621,51.593,671.26,51.593,671.26,51.593C671.26,51.593,671.26,257.879,671.26,257.879C670.928,358.161,614.854,449.924,525.774,495.971C707.715,627.636,678.899,906.87,473.902,998.607C268.919,1090.344,41.493,925.762,64.548,702.372C73.068,619.743,116.42,544.675,183.709,495.971C95.178,449.515,39.666,357.855,39.5,257.879C39.5,257.879,39.5,0.5,39.5,0.5C39.5,0.5,984.714,0.5,984.714,0.5C984.714,0.5,984.714,214.45,984.714,214.45C984.701,266.68,966.295,317.236,932.727,357.254C932.727,357.254,932.727,357.254,932.727,357.254M113.712,731.508C113.61,916.655,313.982,1032.482,474.375,939.991C634.78,847.501,634.895,616.064,474.605,523.407C438.01,502.255,396.497,491.117,354.231,491.117C221.505,491.257,113.929,598.782,113.712,731.508C113.712,731.508,113.712,731.508,113.712,731.508M489.371,51.593C489.371,51.593,90.593,51.593,90.593,51.593C90.593,51.593,90.593,257.879,90.593,257.879C90.733,351.353,150.678,434.238,239.4,463.655C313.012,431.888,396.471,431.888,470.083,463.655C559.304,434.685,619.836,351.685,620.168,257.879C620.168,257.879,620.168,51.593,620.168,51.593C620.168,51.593,489.371,51.593,489.371,51.593" class="icon-icons_behalf-icon"/><glyph unicode="&#x0048;" d="M1024,736.584C1024,736.584,512,975.345,512,975.345C512,975.345,0,736.584,0,736.584C0,736.584,512,497.822,512,497.822C512,497.822,1024,736.584,1024,736.584M512,921.237C512,921.237,907.932,736.584,907.932,736.584C907.932,736.584,512,551.93,512,551.93C512,551.93,116.068,735.97,116.068,735.97C116.068,735.97,512,921.237,512,921.237M602.671,351.449C602.671,351.449,637.27,316.849,637.27,316.849C637.27,316.849,770.024,449.481,770.024,449.481C770.024,449.481,770.024,49.5,770.024,49.5C770.024,49.5,819.102,49.5,819.102,49.5C819.102,49.5,819.102,443.592,819.102,443.592C819.102,443.592,945.967,316.849,945.967,316.849C945.967,316.849,980.689,351.449,980.689,351.449C980.689,351.449,791.618,540.519,791.618,540.519C791.618,540.519,602.671,351.449,602.671,351.449C602.671,351.449,602.671,351.449,602.671,351.449M522.429,329.118C522.429,329.118,116.068,518.557,116.068,518.557C116.068,518.557,211.278,562.972,211.278,562.972C211.278,562.972,190.543,607.387,190.543,607.387C190.543,607.387,0,518.557,0,518.557C0,518.557,501.571,284.581,501.571,284.581C501.571,284.581,522.429,329.118,522.429,329.118C522.429,329.118,522.429,329.118,522.429,329.118M512,115.877C512,115.877,116.068,300.531,116.068,300.531C116.068,300.531,211.278,344.946,211.278,344.946C211.278,344.946,190.543,389.361,190.543,389.361C190.543,389.361,0,300.531,0,300.531C0,300.531,512,61.769,512,61.769C512,61.769,625.369,114.65,625.369,114.65C625.369,114.65,604.634,159.065,604.634,159.065C604.634,159.065,512,115.877,512,115.877C512,115.877,512,115.877,512,115.877" class="icon-icons_bulk-upload-icon"/><glyph unicode="&#x0049;" d="M94.094,662.943C94.094,662.943,502.154,949.355,502.154,949.355C502.154,949.355,910.214,662.943,910.214,662.943C910.214,662.943,910.214,389.62,910.214,389.62C910.214,389.62,971.808,389.62,971.808,389.62C971.808,389.62,971.808,694.972,971.808,694.972C971.808,694.972,502.154,1024.5,502.154,1024.5C502.154,1024.5,32.5,694.972,32.5,694.972C32.5,694.972,32.5,1.424,32.5,1.424C32.5,1.424,230.371,1.424,230.371,1.424C230.371,1.424,230.371,63.018,230.371,63.018C230.371,63.018,94.094,63.018,94.094,63.018C94.094,63.018,94.094,662.943,94.094,662.943C94.094,662.943,94.094,662.943,94.094,662.943M992.442,53.163C992.442,53.163,783.331,176.351,783.331,176.351C883.76,375.561,730.883,608.771,508.16,596.145C285.42,583.518,159.892,334.524,282.187,147.941C389.884,-16.361,626.405,-28.157,749.916,124.612C749.916,124.612,961.183,0.5,961.183,0.5C961.183,0.5,992.442,53.163,992.442,53.163M589.002,87.348C418.663,36.363,257.01,188.916,298.032,361.918C339.053,534.936,551.984,598.655,681.3,476.622C710.788,448.796,732.439,413.688,744.065,374.837C744.065,374.837,744.065,374.837,744.065,374.837C780.636,252.635,711.204,123.919,589.002,87.348C589.002,87.348,589.002,87.348,589.002,87.348" class="icon-icons_check-family-icon"/><glyph unicode="&#x004a;" d="M133.113,708.881C133.113,708.881,815.78,708.881,815.78,708.881C815.78,708.881,815.78,609.348,815.78,609.348C815.78,609.348,870.393,609.348,870.393,609.348C870.393,609.348,870.393,1024,870.393,1024C870.393,1024,78.5,1024,78.5,1024C78.5,1024,78.5,35.635,78.5,35.635C78.5,35.635,376.825,35.635,376.825,35.635C376.825,35.635,376.825,90.249,376.825,90.249C376.825,90.249,133.113,90.249,133.113,90.249C133.113,90.249,133.113,708.881,133.113,708.881M815.097,969.387C815.097,969.387,815.097,763.494,815.097,763.494C815.097,763.494,133.113,763.494,133.113,763.494C133.113,763.494,133.113,969.387,133.113,969.387C133.113,969.387,815.097,969.387,815.097,969.387M945.76,276.617C945.76,276.617,723.757,276.617,723.757,276.617C723.757,276.617,723.757,498.483,723.757,498.483C723.757,498.483,669.143,498.483,669.143,498.483C669.143,498.483,669.143,276.617,669.143,276.617C669.143,276.617,447.14,276.617,447.14,276.617C447.14,276.617,447.14,222.003,447.14,222.003C447.14,222.003,669.143,222.003,669.143,222.003C669.143,222.003,669.143,0,669.143,0C669.143,0,723.757,0,723.757,0C723.757,0,723.757,222.003,723.757,222.003C723.757,222.003,945.76,222.003,945.76,222.003C945.76,222.003,945.76,276.617,945.76,276.617C945.76,276.617,945.76,276.617,945.76,276.617" class="icon-icons_create-icon"/><glyph unicode="&#x004b;" d="M735.114,509.405C735.114,509.405,679.711,509.405,679.711,509.405C679.711,509.405,679.711,297.904,679.711,297.904C679.711,297.904,468.211,297.904,468.211,297.904C468.211,297.904,468.211,242.501,468.211,242.501C468.211,242.501,679.711,242.501,679.711,242.501C679.711,242.501,679.711,31,679.711,31C679.711,31,735.114,31,735.114,31C735.114,31,735.114,242.501,735.114,242.501C735.114,242.501,946.615,242.501,946.615,242.501C946.615,242.501,946.615,297.904,946.615,297.904C946.615,297.904,735.114,297.904,735.114,297.904C735.114,297.904,735.114,509.405,735.114,509.405C735.114,509.405,735.114,509.405,735.114,509.405M858.801,758.302C806.127,899.774,671.11,993.654,520.151,993.765C520.151,993.765,505.053,993.765,505.053,993.765C354.039,993.71,218.953,899.829,166.264,758.302C34.225,753.995,-43.63,608.368,26.109,496.177C52.397,453.891,95.764,425.109,144.934,417.297C157.04,253.457,293.4,126.639,457.684,126.432C457.684,126.432,526.384,126.432,526.384,126.432C526.384,126.432,526.384,181.835,526.384,181.835C526.384,181.835,458.515,181.835,458.515,181.835C315.617,181.599,199.645,297.391,199.645,440.289C199.645,440.289,199.645,633.507,199.645,633.507C199.797,802.14,336.421,938.819,505.053,939.054C505.053,939.054,520.012,939.054,520.012,939.054C688.645,938.819,825.269,802.14,825.421,633.507C825.421,633.507,825.421,417.713,825.421,417.713C825.421,417.713,853.123,417.713,853.123,417.713C853.123,417.713,853.123,414.943,853.123,414.943C985.328,415.815,1067.02,559.475,1000.176,673.536C970.577,724.036,917.293,755.989,858.801,758.302C858.801,758.302,858.801,758.302,858.801,758.302M55.458,586.83C55.569,642.87,95.529,690.918,150.613,701.237C146.389,678.91,144.256,656.236,144.242,633.507C144.242,633.507,144.242,473.808,144.242,473.808C92.163,486.565,55.514,533.214,55.458,586.83C55.458,586.83,55.458,586.83,55.458,586.83M880.824,473.808C880.824,473.808,880.824,633.507,880.824,633.507C880.81,656.236,878.677,678.91,874.453,701.237C962.516,684.921,999.885,579.378,941.726,511.274C925.853,492.701,904.55,479.598,880.824,473.808C880.824,473.808,880.824,473.808,880.824,473.808" class="icon-icons_create-new-assistance-package-icon"/><glyph unicode="&#x004c;" d="M118.773,970.227C118.773,970.227,797.188,970.227,797.188,970.227C797.188,970.227,797.188,572.404,797.188,572.404C797.188,572.404,851.462,572.404,851.462,572.404C851.462,572.404,851.462,1024.5,851.462,1024.5C851.462,1024.5,64.5,1024.5,64.5,1024.5C64.5,1024.5,64.5,34.014,64.5,34.014C64.5,34.014,307.101,34.014,307.101,34.014C307.101,34.014,307.101,88.287,307.101,88.287C307.101,88.287,118.773,88.287,118.773,88.287C118.773,88.287,118.773,970.227,118.773,970.227C118.773,970.227,118.773,970.227,118.773,970.227M589.593,848.519C589.593,848.519,544.818,803.744,544.818,803.744C544.818,803.744,639.66,708.766,639.66,708.766C639.66,708.766,544.818,613.923,544.818,613.923C544.818,613.923,589.593,569.012,589.593,569.012C589.593,569.012,729.347,708.766,729.347,708.766C729.347,708.766,589.593,848.519,589.593,848.519C589.593,848.519,589.593,848.519,589.593,848.519M329.082,848.519C329.082,848.519,189.328,708.766,189.328,708.766C189.328,708.766,329.082,569.012,329.082,569.012C329.082,569.012,373.857,613.923,373.857,613.923C373.857,613.923,279.015,708.766,279.015,708.766C279.015,708.766,373.857,803.744,373.857,803.744C373.857,803.744,329.082,848.519,329.082,848.519C329.082,848.519,329.082,848.519,329.082,848.519M752.142,262.64C752.142,262.64,752.142,470.506,752.142,470.506C752.142,470.506,697.868,470.506,697.868,470.506C697.868,470.506,697.868,262.64,697.868,262.64C697.868,262.64,490.002,262.64,490.002,262.64C490.002,262.64,490.002,208.366,490.002,208.366C490.002,208.366,697.868,208.366,697.868,208.366C697.868,208.366,697.868,0.5,697.868,0.5C697.868,0.5,752.142,0.5,752.142,0.5C752.142,0.5,752.142,208.366,752.142,208.366C752.142,208.366,960.008,208.366,960.008,208.366C960.008,208.366,960.008,262.64,960.008,262.64C960.008,262.64,752.142,262.64,752.142,262.64C752.142,262.64,752.142,262.64,752.142,262.64" class="icon-icons_create-new-system-code-icon"/><glyph unicode="&#x004d;" d="M118.773,413.926C118.773,413.926,566.527,413.926,566.527,413.926C566.527,413.926,566.527,468.199,566.527,468.199C566.527,468.199,118.773,468.199,118.773,468.199C118.773,468.199,118.773,725.997,118.773,725.997C118.773,725.997,797.188,725.997,797.188,725.997C797.188,725.997,797.188,572.404,797.188,572.404C797.188,572.404,851.462,572.404,851.462,572.404C851.462,572.404,851.462,1024.5,851.462,1024.5C851.462,1024.5,64.5,1024.5,64.5,1024.5C64.5,1024.5,64.5,34.014,64.5,34.014C64.5,34.014,307.101,34.014,307.101,34.014C307.101,34.014,307.101,88.287,307.101,88.287C307.101,88.287,118.773,88.287,118.773,88.287C118.773,88.287,118.773,413.926,118.773,413.926M797.188,970.227C797.188,970.227,797.188,780.271,797.188,780.271C797.188,780.271,118.773,780.271,118.773,780.271C118.773,780.271,118.773,970.227,118.773,970.227C118.773,970.227,797.188,970.227,797.188,970.227M960.008,262.64C960.008,262.64,752.142,262.64,752.142,262.64C752.142,262.64,752.142,470.506,752.142,470.506C752.142,470.506,697.868,470.506,697.868,470.506C697.868,470.506,697.868,262.64,697.868,262.64C697.868,262.64,490.002,262.64,490.002,262.64C490.002,262.64,490.002,208.366,490.002,208.366C490.002,208.366,697.868,208.366,697.868,208.366C697.868,208.366,697.868,0.5,697.868,0.5C697.868,0.5,752.142,0.5,752.142,0.5C752.142,0.5,752.142,208.366,752.142,208.366C752.142,208.366,960.008,208.366,960.008,208.366C960.008,208.366,960.008,262.64,960.008,262.64C960.008,262.64,960.008,262.64,960.008,262.64" class="icon-icons_create-new-tier-icon"/><glyph unicode="&#x004e;" d="M888.547,647.953C888.547,647.953,849.661,609.067,849.661,609.067C849.661,609.067,921.73,537.128,921.73,537.128C921.73,537.128,714.337,537.128,714.337,537.128C714.337,537.128,714.337,706.93,714.337,706.93C714.337,706.93,541.035,706.93,541.035,706.93C541.035,706.93,541.035,918.859,541.035,918.859C541.035,918.859,609.086,850.809,609.086,850.809C609.086,850.809,647.972,889.047,647.972,889.047C647.972,889.047,512,1024.5,512,1024.5C512,1024.5,376.547,888.399,376.547,888.399C376.547,888.399,415.433,850.161,415.433,850.161C415.433,850.161,487.372,922.23,487.372,922.23C487.372,922.23,487.372,706.93,487.372,706.93C487.372,706.93,314.718,706.93,314.718,706.93C314.718,706.93,314.718,541.535,314.718,541.535C314.718,541.535,105.641,541.535,105.641,541.535C105.641,541.535,173.691,609.586,173.691,609.586C173.691,609.586,135.453,648.472,135.453,648.472C135.453,648.472,0,512.5,0,512.5C0,512.5,136.101,377.047,136.101,377.047C136.101,377.047,174.339,415.933,174.339,415.933C174.339,415.933,102.27,487.872,102.27,487.872C102.27,487.872,314.718,487.872,314.718,487.872C314.718,487.872,314.718,305.108,314.718,305.108C314.718,305.108,483.224,305.108,483.224,305.108C483.224,305.108,483.224,105.492,483.224,105.492C483.224,105.492,414.914,174.191,414.914,174.191C414.914,174.191,376.028,135.305,376.028,135.305C376.028,135.305,512,0.5,512,0.5C512,0.5,647.453,135.953,647.453,135.953C647.453,135.953,608.567,174.839,608.567,174.839C608.567,174.839,536.628,102.77,536.628,102.77C536.628,102.77,536.628,305.108,536.628,305.108C536.628,305.108,715.504,305.108,715.504,305.108C715.504,305.108,715.504,483.465,715.504,483.465C715.504,483.465,918.359,483.465,918.359,483.465C918.359,483.465,850.309,415.414,850.309,415.414C850.309,415.414,889.195,376.528,889.195,376.528C889.195,376.528,1024,512.5,1024,512.5C1024,512.5,888.547,647.953,888.547,647.953M661.323,652.231C661.323,652.231,661.323,607.252,661.323,607.252C661.323,607.252,369.418,607.252,369.418,607.252C369.418,607.252,369.418,652.231,369.418,652.231C369.418,652.231,661.323,652.231,661.323,652.231M369.418,359.807C369.418,359.807,369.418,553.071,369.418,553.071C369.418,553.071,661.323,553.071,661.323,553.071C661.323,553.071,661.323,359.807,661.323,359.807C661.323,359.807,369.418,359.807,369.418,359.807" class="icon-icons_deploy-icon"/><glyph unicode="&#x004f;" d="M899.009,517.547C899.009,517.547,899.009,321.991,899.009,321.991C899.009,321.991,125.889,321.991,125.889,321.991C125.889,321.991,125.889,495.787,125.889,495.787C125.889,495.787,69,495.787,69,495.787C69,495.787,69,0,69,0C69,0,955.898,0,955.898,0C955.898,0,955.898,517.547,955.898,517.547C955.898,517.547,899.009,517.547,899.009,517.547M125.889,56.889C125.889,56.889,125.889,265.102,125.889,265.102C125.889,265.102,899.009,265.102,899.009,265.102C899.009,265.102,899.009,56.889,899.009,56.889C899.009,56.889,125.889,56.889,125.889,56.889M740.147,659.769C740.147,659.769,699.898,700.018,699.898,700.018C699.898,700.018,537.338,537.458,537.338,537.458C537.338,537.458,537.338,1024,537.338,1024C537.338,1024,480.449,1024,480.449,1024C480.449,1024,480.449,544.569,480.449,544.569C480.449,544.569,325,700.018,325,700.018C325,700.018,284.751,659.769,284.751,659.769C284.751,659.769,512.449,432.071,512.449,432.071C512.449,432.071,740.147,659.769,740.147,659.769C740.147,659.769,740.147,659.769,740.147,659.769" class="icon-icons_download-icon"/><glyph unicode="&#x0050;" d="M1024,856.528C1024,856.528,571.617,856.528,571.617,856.528C571.617,856.528,571.617,1002.795,571.617,1002.795C571.617,1002.795,66.865,849.868,66.865,849.868C66.865,849.868,66.865,597.296,66.865,597.296C66.865,597.296,119.103,597.296,119.103,597.296C119.103,597.296,119.103,811.081,119.103,811.081C119.103,811.081,519.379,932.274,519.379,932.274C519.379,932.274,519.379,97.898,519.379,97.898C519.379,97.898,333.672,154.055,333.672,154.055C333.672,154.055,318.523,104.167,318.523,104.167C318.523,104.167,571.617,27.377,571.617,27.377C571.617,27.377,571.617,173.644,571.617,173.644C571.617,173.644,1024,173.644,1024,173.644C1024,173.644,1024,856.528,1024,856.528M971.762,225.882C971.762,225.882,571.617,225.882,571.617,225.882C571.617,225.882,571.617,804.29,571.617,804.29C571.617,804.29,971.762,804.29,971.762,804.29C971.762,804.29,971.762,225.882,971.762,225.882M655.067,664.553C655.067,664.553,655.067,612.314,655.067,612.314C655.067,612.314,860.756,612.314,860.756,612.314C860.756,612.314,860.756,664.553,860.756,664.553C860.756,664.553,655.067,664.553,655.067,664.553M655.067,527.427C655.067,527.427,655.067,475.189,655.067,475.189C655.067,475.189,860.756,475.189,860.756,475.189C860.756,475.189,860.756,527.427,860.756,527.427C860.756,527.427,655.067,527.427,655.067,527.427M655.067,390.433C655.067,390.433,655.067,338.194,655.067,338.194C655.067,338.194,860.756,338.194,860.756,338.194C860.756,338.194,860.756,390.433,860.756,390.433C860.756,390.433,655.067,390.433,655.067,390.433M333.019,279.165C333.019,279.165,369.847,315.993,369.847,315.993C369.847,315.993,184.923,501.047,184.923,501.047C184.923,501.047,0,315.993,0,315.993C0,315.993,36.828,279.165,36.828,279.165C36.828,279.165,161.677,403.884,161.677,403.884C161.677,403.884,161.677,21.5,161.677,21.5C161.677,21.5,213.916,21.5,213.916,21.5C213.916,21.5,213.916,398.138,213.916,398.138C213.916,398.138,333.019,279.165,333.019,279.165C333.019,279.165,333.019,279.165,333.019,279.165" class="icon-icons_export-excel-icon"/><glyph unicode="&#x0051;" d="M372.971,649.811C372.971,649.811,409.571,687.996,409.571,687.996C409.571,687.996,112.941,971.148,112.941,971.148C112.941,971.148,797.237,971.148,797.237,971.148C797.237,971.148,603.007,763.97,603.007,763.97C603.007,763.97,641.589,727.899,641.589,727.899C641.589,727.899,826.57,926.092,826.57,926.092C826.57,926.092,826.57,725.388,826.57,725.388C826.57,725.388,879.421,725.388,879.421,725.388C879.421,725.388,879.421,1024,879.421,1024C879.421,1024,26,1024,26,1024C26,1024,26,401.804,26,401.804C26,401.804,264.757,401.804,264.757,401.804C264.757,401.804,264.757,454.656,264.757,454.656C264.757,454.656,112.016,454.656,112.016,454.656C112.016,454.656,327.915,692.488,327.915,692.488C327.915,692.488,372.971,649.811,372.971,649.811M78.852,496.805C78.852,496.805,78.852,930.585,78.852,930.585C78.852,930.585,290.258,729.352,290.258,729.352C290.258,729.352,78.852,496.805,78.852,496.805M956.717,273.507C956.717,273.507,915.361,297.29,915.361,297.29C917.29,314.85,917.29,332.582,915.361,350.142C915.361,350.142,952.621,372.34,952.621,372.34C952.621,372.34,998.205,398.765,998.205,398.765C998.205,398.765,897.391,573.969,897.391,573.969C897.391,573.969,820.492,529.309,820.492,529.309C820.492,529.309,814.678,525.874,814.678,525.874C800.329,536.417,784.804,545.297,768.433,552.299C768.433,569.212,768.433,585.992,768.433,602.905C768.433,602.905,768.433,648.489,768.433,648.489C768.433,648.489,565.879,648.489,565.879,648.489C565.879,648.489,565.879,552.696,565.879,552.696C549.482,545.561,533.891,536.695,519.37,526.27C519.37,526.27,436.261,574.365,436.261,574.365C436.261,574.365,335.182,398.765,335.182,398.765C335.182,398.765,412.874,353.842,412.874,353.842C412.874,353.842,418.291,350.67,418.291,350.67C416.217,333.111,416.217,315.379,418.291,297.819C418.291,297.819,378.652,275.225,378.652,275.225C378.652,275.225,363.458,266.372,363.458,266.372C363.458,266.372,358.701,263.597,358.701,263.597C358.701,263.597,335.578,248.667,335.578,248.667C335.578,248.667,436.261,74.257,436.261,74.257C436.261,74.257,519.37,122.219,519.37,122.219C533.904,111.808,549.495,102.942,565.879,95.794C565.879,95.794,565.879,0,565.879,0C565.879,0,767.64,0,767.64,0C767.64,0,767.64,96.058,767.64,96.058C776.215,99.771,784.592,103.919,792.745,108.478C800.144,112.838,807.147,117.595,813.753,121.691C813.753,121.691,897.127,73.728,897.127,73.728C897.127,73.728,997.941,248.27,997.941,248.27C997.941,248.27,956.717,273.507,956.717,273.507M877.439,146.399C877.439,146.399,811.375,184.716,811.375,184.716C811.375,184.716,798.162,175.335,798.162,175.335C798.162,175.335,787.724,168.068,787.724,168.068C780.589,163.047,773.718,158.291,766.98,154.855C757.347,149.544,747.411,144.787,737.251,140.585C737.251,140.585,734.476,139.396,734.476,139.396C721.884,134.388,713.943,121.863,714.789,108.346C714.789,108.346,714.789,52.852,714.789,52.852C714.789,52.852,618.731,52.852,618.731,52.852C618.731,71.482,618.731,90.244,618.731,108.874C618.929,121.955,611.12,133.847,599.044,138.868C577.123,147.165,556.762,159.097,538.793,174.146C538.793,174.146,524.655,186.038,524.655,186.038C524.655,186.038,455.684,146.399,455.684,146.399C455.684,146.399,407.457,230.037,407.457,230.037C407.457,230.037,455.684,257.784,455.684,257.784C468.487,264.443,475.331,278.779,472.464,292.93C468.764,313.463,468.764,334.498,472.464,355.031C475.503,369.472,468.381,384.152,455.155,390.706C449.87,393.48,444.849,396.387,439.696,399.426C439.696,399.426,407.457,418.056,407.457,418.056C407.457,418.056,455.551,502.09,455.551,502.09C455.551,502.09,523.598,462.452,523.598,462.452C523.598,462.452,538.661,474.079,538.661,474.079C538.661,474.079,541.567,476.325,541.567,476.325C558.07,489.948,576.74,500.703,596.797,508.168C610.473,512.7,619.471,525.755,618.863,540.143C618.863,558.642,618.863,577.14,618.863,595.638C618.863,595.638,714.789,595.638,714.789,595.638C714.789,577.007,714.789,558.509,714.789,540.011C714.154,525.874,722.849,513.004,736.194,508.3C756.475,500.69,775.291,489.657,791.82,475.665C802.311,466.495,817.611,465.358,829.345,472.89C829.345,472.89,846.918,483.46,846.918,483.46C846.918,483.46,877.968,502.09,877.968,502.09C877.968,502.09,926.195,418.056,926.195,418.056C926.195,418.056,926.195,418.056,926.195,418.056C910.207,408.807,894.352,399.558,878.364,390.573C865.336,383.835,858.373,369.261,861.32,354.899C864.953,334.353,864.953,313.344,861.32,292.798C858.32,278.805,865.033,264.549,877.704,257.916C877.704,257.916,926.195,230.037,926.195,230.037C926.195,230.037,877.439,146.399,877.439,146.399M669.468,462.452C669.468,462.452,667.751,462.452,667.751,462.452C631.032,462.729,595.701,448.486,569.447,422.813C543.549,397.563,528.764,363.051,528.355,326.887C527.932,289.204,542.757,252.948,569.447,226.337C594.683,200.915,629.024,186.645,664.844,186.698C664.844,186.698,664.844,186.698,664.844,186.698C701.721,186.408,737.224,200.651,763.676,226.337C790.102,252.036,804.94,287.381,804.769,324.245C804.769,324.245,804.769,324.245,804.769,324.245C804.861,399.479,744.689,460.945,669.468,462.452C669.468,462.452,669.468,462.452,669.468,462.452M726.945,264.258C710.336,248.178,688.085,239.259,664.976,239.418C664.976,239.418,664.976,239.418,664.976,239.418C643.122,239.497,622.219,248.35,606.971,263.994C590.614,280.642,581.576,303.144,581.867,326.491C582.158,348.622,591.235,369.723,607.103,385.156C623.342,400.932,645.117,409.706,667.751,409.6C667.751,409.6,668.808,409.6,668.808,409.6C714.947,408.041,751.653,370.397,752.049,324.245C752.089,301.69,743.038,280.061,726.945,264.258C726.945,264.258,726.945,264.258,726.945,264.258" class="icon-icons_generate-letter-icon"/><glyph unicode="&#x0052;" d="M613.246,465.455C613.246,465.455,611.517,465.455,611.517,465.455C574.56,465.734,538.999,451.398,512.575,425.558C486.509,400.145,471.628,365.408,471.216,329.01C470.79,291.082,485.711,254.59,512.575,227.807C537.975,202.22,572.539,187.857,608.591,187.911C608.591,187.911,608.591,187.911,608.591,187.911C645.708,187.618,681.442,201.954,708.066,227.807C734.663,253.673,749.598,289.247,749.425,326.35C749.425,326.35,749.425,326.35,749.425,326.35C749.518,402.073,688.955,463.938,613.246,465.455C613.246,465.455,613.246,465.455,613.246,465.455M671.095,265.974C654.379,249.79,631.984,240.813,608.724,240.972C608.724,240.972,608.724,240.972,608.724,240.972C586.728,241.052,565.69,249.962,550.343,265.708C533.879,282.464,524.783,305.112,525.076,328.611C525.368,350.886,534.504,372.124,550.476,387.657C566.82,403.536,588.736,412.366,611.517,412.26C611.517,412.26,612.581,412.26,612.581,412.26C659.02,410.69,695.964,372.802,696.363,326.35C696.403,303.649,687.293,281.879,671.095,265.974C671.095,265.974,671.095,265.974,671.095,265.974M902.36,275.283C902.36,275.283,860.735,299.221,860.735,299.221C862.676,316.895,862.676,334.742,860.735,352.416C860.735,352.416,898.237,374.757,898.237,374.757C898.237,374.757,944.118,401.355,944.118,401.355C944.118,401.355,842.649,577.696,842.649,577.696C842.649,577.696,765.25,531.948,765.25,531.948C765.25,531.948,759.532,528.623,759.532,528.623C745.049,539.196,729.437,548.119,712.986,555.221C712.986,572.243,712.986,589.132,712.986,606.155C712.986,606.155,712.986,652.7,712.986,652.7C712.986,652.7,508.984,652.7,508.984,652.7C508.984,652.7,508.984,556.285,508.984,556.285C492.467,549.13,476.775,540.22,462.173,529.687C462.173,529.687,378.524,578.095,378.524,578.095C378.524,578.095,276.789,401.355,276.789,401.355C276.789,401.355,354.985,356.139,354.985,356.139C354.985,356.139,360.438,352.948,360.438,352.948C358.35,335.274,358.35,317.427,360.438,299.753C360.438,299.753,320.542,277.012,320.542,277.012C320.542,277.012,305.248,268.102,305.248,268.102C305.248,268.102,300.461,265.309,300.461,265.309C300.461,265.309,277.188,250.282,277.188,250.282C277.188,250.282,378.524,74.739,378.524,74.739C378.524,74.739,462.173,123.013,462.173,123.013C476.801,112.534,492.494,103.61,508.984,96.416C508.984,96.416,508.984,0,508.984,0C508.984,0,712.055,0,712.055,0C712.055,0,712.055,96.682,712.055,96.682C720.686,100.418,729.118,104.594,737.323,109.182C744.77,113.571,751.818,118.358,758.468,122.481C758.468,122.481,842.383,74.207,842.383,74.207C842.383,74.207,943.852,249.883,943.852,249.883C943.852,249.883,902.36,275.283,902.36,275.283M822.568,147.35C822.568,147.35,756.074,185.916,756.074,185.916C756.074,185.916,742.775,176.474,742.775,176.474C742.775,176.474,732.269,169.159,732.269,169.159C725.088,164.106,718.173,159.318,711.39,155.861C701.696,150.515,691.695,145.727,681.468,141.498C681.468,141.498,678.676,140.301,678.676,140.301C666.002,135.261,658.009,122.654,658.861,109.049C658.861,109.049,658.861,53.195,658.861,53.195C658.861,53.195,562.179,53.195,562.179,53.195C562.179,71.946,562.179,90.83,562.179,109.581C562.378,122.747,554.519,134.716,542.364,139.769C520.301,148.121,499.808,160.13,481.722,175.277C481.722,175.277,467.492,187.246,467.492,187.246C467.492,187.246,398.073,147.35,398.073,147.35C398.073,147.35,349.533,231.53,349.533,231.53C349.533,231.53,398.073,259.458,398.073,259.458C410.959,266.16,417.848,280.589,414.962,294.832C411.239,315.498,411.239,336.67,414.962,357.336C418.021,371.872,410.853,386.646,397.541,393.243C392.222,396.035,387.168,398.961,381.982,402.02C381.982,402.02,349.533,420.771,349.533,420.771C349.533,420.771,397.94,505.351,397.94,505.351C397.94,505.351,451.135,474.764,451.135,474.764C451.135,474.764,467.625,466.784,467.625,466.784C467.625,466.784,481.722,477.556,481.722,477.556C481.722,477.556,484.648,479.817,484.648,479.817C501.324,493.435,520.102,504.247,540.236,511.867C554,516.428,563.057,529.568,562.445,544.05C562.445,562.668,562.445,581.286,562.445,599.904C562.445,599.904,658.861,599.904,658.861,599.904C658.861,581.153,658.861,562.535,658.861,543.917C658.182,529.687,666.946,516.694,680.404,512C700.845,504.22,719.782,492.97,736.392,478.753C746.951,469.524,762.351,468.38,774.16,475.961C774.16,475.961,791.05,485.802,791.05,485.802C791.05,485.802,823.099,505.351,823.099,505.351C823.099,505.351,871.64,420.771,871.64,420.771C871.64,420.771,871.64,420.771,871.64,420.771C855.548,411.462,839.59,402.153,823.498,393.11C810.386,386.327,803.378,371.659,806.343,357.203C810,336.524,810,315.379,806.343,294.699C803.324,280.616,810.08,266.267,822.834,259.591C822.834,259.591,871.64,231.53,871.64,231.53C871.64,231.53,822.568,147.35,822.568,147.35M133.695,966.151C133.695,966.151,541.699,966.151,541.699,966.151C541.699,966.151,541.699,729.966,541.699,729.966C541.699,729.966,811.663,729.966,811.663,729.966C811.663,729.966,811.663,664.935,811.663,664.935C811.663,664.935,864.857,664.935,864.857,664.935C864.857,664.935,864.857,779.57,864.857,779.57C864.857,779.57,597.421,1024,597.421,1024C597.421,1024,593.564,1019.611,593.564,1019.611C593.564,1019.611,80.5,1019.611,80.5,1019.611C80.5,1019.611,80.5,10.24,80.5,10.24C80.5,10.24,321.871,10.24,321.871,10.24C321.871,10.24,321.871,63.435,321.871,63.435C321.871,63.435,133.695,63.435,133.695,63.435C133.695,63.435,133.695,966.151,133.695,966.151M782.006,783.161C782.006,783.161,594.894,783.161,594.894,783.161C594.894,783.161,594.894,954.049,594.894,954.049C594.894,954.049,782.006,783.161,782.006,783.161" class="icon-icons_generate-report-icon"/><glyph unicode="&#x0053;" d="M86.054,706.477C86.054,706.477,561.581,706.477,561.581,706.477C561.581,706.477,216.256,389.918,216.256,389.918C216.256,389.918,196.987,248.981,196.987,248.981C196.987,248.981,346.871,245.677,346.871,245.677C346.871,245.677,930.991,780.387,930.991,780.387C930.991,780.387,830.518,891.458,830.518,891.458C830.518,891.458,828.591,1024,828.591,1024C828.591,1024,31,1024,31,1024C31,1024,31,0,31,0C31,0,510.656,0,510.656,0C510.656,0,510.656,55.054,510.656,55.054C510.656,55.054,86.054,55.054,86.054,55.054C86.054,55.054,86.054,706.477,86.054,706.477M325.538,301.419C325.538,301.419,259.886,303.209,259.886,303.209C259.886,303.209,268.144,363.492,268.144,363.492C268.144,363.492,598.467,666.288,598.467,666.288C598.467,666.288,655.31,603.665,655.31,603.665C655.31,603.665,325.538,301.419,325.538,301.419M696.187,640.275C696.187,640.275,639.344,702.899,639.344,702.899C639.344,702.899,796.66,846.727,796.66,846.727C796.66,846.727,853.366,784.103,853.366,784.103C853.366,784.103,696.187,640.275,696.187,640.275M773.538,968.946C773.538,968.946,774.776,901.781,774.776,901.781C774.776,901.781,622.14,761.531,622.14,761.531C622.14,761.531,86.054,761.531,86.054,761.531C86.054,761.531,86.054,968.946,86.054,968.946C86.054,968.946,773.538,968.946,773.538,968.946M993.065,282.426C993.065,282.426,769.271,282.426,769.271,282.426C769.271,282.426,769.271,506.219,769.271,506.219C769.271,506.219,714.217,506.219,714.217,506.219C714.217,506.219,714.217,282.426,714.217,282.426C714.217,282.426,490.561,282.426,490.561,282.426C490.561,282.426,490.561,227.372,490.561,227.372C490.561,227.372,714.217,227.372,714.217,227.372C714.217,227.372,714.217,3.578,714.217,3.578C714.217,3.578,769.271,3.578,769.271,3.578C769.271,3.578,769.271,227.372,769.271,227.372C769.271,227.372,993.065,227.372,993.065,227.372C993.065,227.372,993.065,282.426,993.065,282.426C993.065,282.426,993.065,282.426,993.065,282.426" class="icon-icons_new-appeal-icon"/><glyph unicode="&#x0054;" d="M484.867,491.52C484.867,491.52,484.867,628.053,484.867,628.053C484.867,628.053,662.36,628.053,662.36,628.053C662.36,628.053,662.36,1024,662.36,1024C662.36,1024,266.413,1024,266.413,1024C266.413,1024,266.413,628.053,266.413,628.053C266.413,628.053,430.253,628.053,430.253,628.053C430.253,628.053,430.253,546.133,430.253,546.133C430.253,546.133,170.84,546.133,170.84,546.133C170.84,546.133,170.84,395.947,170.84,395.947C170.84,395.947,7,395.947,7,395.947C7,395.947,7,0,7,0C7,0,402.947,0,402.947,0C402.947,0,402.947,395.947,402.947,395.947C402.947,395.947,225.453,395.947,225.453,395.947C225.453,395.947,225.453,491.52,225.453,491.52C225.453,491.52,484.867,491.52,484.867,491.52M321.027,969.387C321.027,969.387,607.747,969.387,607.747,969.387C607.747,969.387,607.747,682.667,607.747,682.667C607.747,682.667,321.027,682.667,321.027,682.667C321.027,682.667,321.027,969.387,321.027,969.387M348.333,54.613C348.333,54.613,61.613,54.613,61.613,54.613C61.613,54.613,61.613,341.333,61.613,341.333C61.613,341.333,348.333,341.333,348.333,341.333C348.333,341.333,348.333,54.613,348.333,54.613M1017.21,289.314C1017.21,289.314,795.207,289.314,795.207,289.314C795.207,289.314,795.207,511.317,795.207,511.317C795.207,511.317,740.594,511.317,740.594,511.317C740.594,511.317,740.594,289.314,740.594,289.314C740.594,289.314,518.727,289.314,518.727,289.314C518.727,289.314,518.727,234.701,518.727,234.701C518.727,234.701,740.594,234.701,740.594,234.701C740.594,234.701,740.594,12.698,740.594,12.698C740.594,12.698,795.207,12.698,795.207,12.698C795.207,12.698,795.207,234.701,795.207,234.701C795.207,234.701,1017.21,234.701,1017.21,234.701C1017.21,234.701,1017.21,289.314,1017.21,289.314C1017.21,289.314,1017.21,289.314,1017.21,289.314" class="icon-icons_new-org-icon"/><glyph unicode="&#x0055;" d="M118.937,257.728C119.252,350.528,178.755,432.776,266.809,462.101C473.752,372.906,699.651,541.163,673.432,764.977C647.214,988.792,388.542,1100.299,207.818,965.68C49.799,847.972,50.848,610.904,209.915,494.612C122.057,448.166,66.933,357.109,66.5,257.728C66.5,257.728,66.5,0,66.5,0C66.5,0,590.87,0,590.87,0C590.87,0,590.87,52.437,590.87,52.437C590.87,52.437,118.937,52.437,118.937,52.437C118.937,52.437,118.937,257.728,118.937,257.728M142.009,729.661C141.603,913.728,340.615,1029.208,500.22,937.522C659.838,845.835,660.336,615.755,501.137,523.374C464.681,502.216,423.268,491.073,381.122,491.073C249.282,491.44,142.547,598.346,142.403,730.186C142.403,730.186,142.009,729.661,142.009,729.661M957.536,343.331C957.536,343.331,744.511,343.331,744.511,343.331C744.511,343.331,744.511,556.488,744.511,556.488C744.511,556.488,692.074,556.488,692.074,556.488C692.074,556.488,692.074,343.331,692.074,343.331C692.074,343.331,478.917,343.331,478.917,343.331C478.917,343.331,478.917,290.894,478.917,290.894C478.917,290.894,692.074,290.894,692.074,290.894C692.074,290.894,692.074,77.738,692.074,77.738C692.074,77.738,744.511,77.738,744.511,77.738C744.511,77.738,744.511,290.894,744.511,290.894C744.511,290.894,957.536,290.894,957.536,290.894C957.536,290.894,957.536,343.331,957.536,343.331C957.536,343.331,957.536,343.331,957.536,343.331" class="icon-icons_new-user-icon"/><glyph unicode="&#x0056;" d="M0,1024C0,1024,0,0,0,0C0,0,1024,0,1024,0C1024,0,1024,1024,1024,1024C1024,1024,0,1024,0,1024M960.985,63.015C960.985,63.015,63.015,63.015,63.015,63.015C63.015,63.015,63.015,475.766,63.015,475.766C63.015,475.766,622.277,475.766,622.277,475.766C622.277,475.766,401.723,256,401.723,256C401.723,256,446.306,211.417,446.306,211.417C446.306,211.417,747.205,512,747.205,512C747.205,512,446.622,812.583,446.622,812.583C446.622,812.583,401.723,768,401.723,768C401.723,768,631.414,538.782,631.414,538.782C631.414,538.782,63.015,538.782,63.015,538.782C63.015,538.782,63.015,960.985,63.015,960.985C63.015,960.985,960.985,960.985,960.985,960.985C960.985,960.985,960.985,63.015,960.985,63.015" class="icon-icons_next-icon"/><glyph unicode="&#x0057;" d="M751.633,392.507C751.633,392.507,937.011,305.018,937.011,305.018C937.011,305.018,1024.5,490.527,1024.5,490.527C1024.5,490.527,977.44,512.756,977.44,512.756C977.44,512.756,932.591,417.467,932.591,417.467C857.127,612.322,599.04,652.414,468.014,489.63C337.002,326.858,431.329,83.292,637.806,51.222C720.03,38.443,803.58,64.092,864.472,120.81C864.472,120.81,829.112,159.03,829.112,159.03C705.522,44.163,503.946,106.159,466.259,270.621C428.859,433.808,580.827,576.963,741.493,529.916C811.588,509.181,866.799,454.946,888.781,385.228C888.781,385.228,773.472,439.567,773.472,439.567C773.472,439.567,751.633,392.507,751.633,392.507M220.718,722.704C281.622,713.747,343.112,709.405,404.666,709.704C540.255,709.704,682.993,729.984,757.353,773.014C757.353,773.014,757.353,656.015,757.353,656.015C757.353,656.015,809.352,656.015,809.352,656.015C809.352,656.015,809.352,846.073,809.352,846.073C809.352,846.073,809.352,846.073,809.352,846.073C803.892,934.992,597.194,976.072,404.926,976.072C212.658,976.072,5.96,935.512,0.5,846.073C0.5,846.073,0.5,846.073,0.5,846.073C0.5,846.073,0.5,222.079,0.5,222.079C0.5,147.2,138.819,114.83,221.498,102.22C282.402,93.328,343.892,88.986,405.446,89.22C405.446,89.22,405.446,141.22,405.446,141.22C346.492,141.181,287.615,145.536,229.298,154.22C96.439,173.85,51.979,208.819,51.979,221.689C51.979,221.689,51.979,350.648,51.979,350.648C99.819,323.218,170.538,308.268,220.978,300.598C246.978,296.438,275.317,293.318,304.177,291.108C304.177,291.108,308.077,343.108,308.077,343.108C280.517,345.188,253.868,348.178,228.778,352.078C96.439,372.098,51.979,407.847,51.979,420.847C51.979,420.847,51.979,586.466,51.979,586.466C99.819,559.036,170.538,544.086,220.978,536.416C281.882,527.524,343.372,523.182,404.926,523.416C404.926,523.416,404.926,575.416,404.926,575.416C345.972,575.39,287.095,579.732,228.778,588.416C96.439,608.045,51.979,643.275,51.979,656.275C51.979,656.275,51.979,773.274,51.979,773.274C99.819,745.844,170.538,730.374,220.718,722.704C220.718,722.704,220.718,722.704,220.718,722.704M404.666,923.552C637.364,923.552,757.353,866.743,757.353,842.563C757.353,818.383,637.364,761.444,404.666,761.444C345.712,761.405,286.835,765.76,228.518,774.444C96.439,794.204,51.979,829.563,51.979,842.563C51.979,866.743,171.968,923.552,404.666,923.552C404.666,923.552,404.666,923.552,404.666,923.552" class="icon-icons_refresh-data-icon"/><glyph unicode="&#x0058;" d="M862.916,481.898C862.916,481.898,862.916,1024,862.916,1024C862.916,1024,80,1024,80,1024C80,1024,80,19.843,80,19.843C80,19.843,550.694,19.843,550.694,19.843C550.694,19.843,550.694,22.138,550.694,22.138C585.412,7.465,622.736,-0.067,660.437,0C878.655,-0.027,1015.071,236.171,905.989,425.164C894.07,445.817,879.6,464.877,862.916,481.898C862.916,481.898,862.916,481.898,862.916,481.898M808.921,970.006C808.921,970.006,808.921,766.448,808.921,766.448C808.921,766.448,133.994,766.448,133.994,766.448C133.994,766.448,133.994,970.006,133.994,970.006C133.994,970.006,808.921,970.006,808.921,970.006M133.994,73.837C133.994,73.837,133.994,712.454,133.994,712.454C133.994,712.454,808.921,712.454,808.921,712.454C808.921,712.454,808.921,524.689,808.921,524.689C620.32,634.446,383.623,498.866,382.88,280.649C382.61,202.452,414.669,127.602,471.458,73.837C471.458,73.837,133.994,73.837,133.994,73.837M660.437,53.995C483.782,53.779,373.148,244.864,461.28,397.965C546.591,546.138,758.153,552.334,851.982,409.411C851.982,409.411,659.358,216.787,659.358,216.787C659.358,216.787,561.358,330.175,561.358,330.175C561.358,330.175,520.862,294.809,520.862,294.809C520.862,294.809,656.523,137.551,656.523,137.551C656.523,137.551,877.224,358.252,877.224,358.252C928.572,209.309,817.979,54.103,660.437,53.995C660.437,53.995,660.437,53.995,660.437,53.995" class="icon-icons_reinstate-icon"/><glyph unicode="&#x0059;" d="M827.172,401.52C827.172,401.52,669.148,243.495,669.148,243.495C669.148,243.495,511.26,401.52,511.26,401.52C511.26,401.52,472.373,362.632,472.373,362.632C472.373,362.632,630.397,204.608,630.397,204.608C630.397,204.608,472.373,46.72,472.373,46.72C472.373,46.72,511.26,7.833,511.26,7.833C511.26,7.833,669.148,165.857,669.148,165.857C669.148,165.857,827.172,7.833,827.172,7.833C827.172,7.833,866.06,46.72,866.06,46.72C866.06,46.72,708.035,204.608,708.035,204.608C708.035,204.608,866.06,362.632,866.06,362.632C866.06,362.632,827.172,401.52,827.172,401.52C827.172,401.52,827.172,401.52,827.172,401.52M168.965,706.851C168.965,706.851,856.029,706.851,856.029,706.851C856.029,706.851,856.029,503.755,856.029,503.755C856.029,503.755,910.994,503.755,910.994,503.755C910.994,503.755,910.994,1024,910.994,1024C910.994,1024,114,1024,114,1024C114,1024,114,1.924,114,1.924C114,1.924,388.826,0,388.826,0C388.826,0,388.826,54.965,388.826,54.965C388.826,54.965,168.965,56.477,168.965,56.477C168.965,56.477,168.965,706.851,168.965,706.851M856.029,969.035C856.029,969.035,856.029,761.816,856.029,761.816C856.029,761.816,168.965,761.816,168.965,761.816C168.965,761.816,168.965,969.035,168.965,969.035C168.965,969.035,856.029,969.035,856.029,969.035" class="icon-icons_reject-icon"/><glyph unicode="&#x005a;" d="M111.5,1024.5C111.5,1024.5,111.5,15.565,111.5,15.565C111.5,15.565,358.62,15.565,358.62,15.565C358.62,15.565,358.62,70.849,358.62,70.849C358.62,70.849,166.784,70.849,166.784,70.849C166.784,70.849,166.784,402.554,166.784,402.554C166.784,402.554,380.872,402.554,380.872,402.554C522.095,402.706,636.547,517.158,636.699,658.381C636.699,658.381,636.699,746.974,636.699,746.974C636.699,746.974,776.153,607.52,776.153,607.52C776.153,607.52,815.129,646.633,815.129,646.633C815.129,646.633,605.602,856.298,605.602,856.298C605.602,856.298,395.937,646.633,395.937,646.633C395.937,646.633,435.05,607.52,435.05,607.52C435.05,607.52,581.415,753.884,581.415,753.884C581.415,753.884,581.415,658.381,581.415,658.381C581.263,547.688,491.564,457.99,380.872,457.838C380.872,457.838,166.784,457.838,166.784,457.838C166.784,457.838,166.784,969.216,166.784,969.216C166.784,969.216,857.836,969.216,857.836,969.216C857.836,969.216,857.836,563.983,857.836,563.983C857.836,563.983,913.12,563.983,913.12,563.983C913.12,563.983,913.12,1024.5,913.12,1024.5C913.12,1024.5,111.5,1024.5,111.5,1024.5M856.453,396.472C856.453,396.472,697.512,237.531,697.512,237.531C697.512,237.531,538.708,396.472,538.708,396.472C538.708,396.472,499.594,357.359,499.594,357.359C499.594,357.359,658.536,198.417,658.536,198.417C658.536,198.417,499.594,39.614,499.594,39.614C499.594,39.614,538.708,0.5,538.708,0.5C538.708,0.5,697.512,159.442,697.512,159.442C697.512,159.442,856.453,0.5,856.453,0.5C856.453,0.5,895.567,39.614,895.567,39.614C895.567,39.614,736.625,198.417,736.625,198.417C736.625,198.417,895.567,357.359,895.567,357.359C895.567,357.359,856.453,396.472,856.453,396.472C856.453,396.472,856.453,396.472,856.453,396.472" class="icon-icons_reject-mtc-deviation-icon"/><glyph unicode="&#x0061;" d="M131.279,964.108C131.279,964.108,872.59,964.108,872.59,964.108C872.59,964.108,830.965,542.17,830.965,542.17C830.965,542.17,890.558,536.331,890.558,536.331C890.558,536.331,938.771,1024,938.771,1024C938.771,1024,64.5,1024,64.5,1024C64.5,1024,175.899,0,175.899,0C175.899,0,395.103,0,395.103,0C395.103,0,395.103,59.892,395.103,59.892C395.103,59.892,229.652,59.892,229.652,59.892C229.652,59.892,131.279,964.108,131.279,964.108C131.279,964.108,131.279,964.108,131.279,964.108M337.457,798.208C337.457,798.208,337.457,738.316,337.457,738.316C337.457,738.316,666.113,738.316,666.113,738.316C666.113,738.316,666.113,798.208,666.113,798.208C666.113,798.208,337.457,798.208,337.457,798.208M960.032,406.366C960.032,406.366,917.808,448.739,917.808,448.739C917.808,448.739,745.619,276.55,745.619,276.55C745.619,276.55,573.58,448.739,573.58,448.739C573.58,448.739,531.207,406.366,531.207,406.366C531.207,406.366,703.246,234.327,703.246,234.327C703.246,234.327,531.207,62.138,531.207,62.138C531.207,62.138,573.58,19.764,573.58,19.764C573.58,19.764,745.619,191.953,745.619,191.953C745.619,191.953,917.808,19.764,917.808,19.764C917.808,19.764,960.032,62.138,960.032,62.138C960.032,62.138,787.993,234.327,787.993,234.327C787.993,234.327,960.032,406.366,960.032,406.366C960.032,406.366,960.032,406.366,960.032,406.366" class="icon-icons_remove-icon-16"/><glyph unicode="&#x0062;" d="M902.783,786.37C902.783,786.37,642.299,1024.5,642.299,1024.5C642.299,1024.5,638.417,1020.083,638.417,1020.083C638.417,1020.083,122,1020.083,122,1020.083C122,1020.083,122,4.114,122,4.114C122,4.114,431.877,4.114,431.877,4.114C431.877,4.114,431.877,57.657,431.877,57.657C431.877,57.657,175.542,57.657,175.542,57.657C175.542,57.657,175.542,966.273,175.542,966.273C175.542,966.273,586.213,966.273,586.213,966.273C586.213,966.273,586.213,728.544,586.213,728.544C586.213,728.544,846.698,728.544,846.698,728.544C846.698,728.544,846.698,573.538,846.698,573.538C846.698,573.538,900.24,573.538,900.24,573.538C900.24,573.538,900.24,782.086,900.24,782.086C900.24,782.086,898.901,782.086,898.901,782.086C898.901,782.086,902.783,786.37,902.783,786.37M639.756,954.092C639.756,954.092,828.092,782.086,828.092,782.086C828.092,782.086,639.756,782.086,639.756,782.086C639.756,782.086,639.756,954.092,639.756,954.092M423.043,336.747C423.043,336.747,460.79,298.865,460.79,298.865C460.79,298.865,634.803,472.879,634.803,472.879C634.803,472.879,634.803,0.5,634.803,0.5C634.803,0.5,688.346,0.5,688.346,0.5C688.346,0.5,688.346,465.115,688.346,465.115C688.346,465.115,854.461,298.865,854.461,298.865C854.461,298.865,892.342,336.747,892.342,336.747C892.342,336.747,657.826,571.263,657.826,571.263C657.826,571.263,423.043,336.747,423.043,336.747M656.354,494.028C656.354,494.028,657.826,495.634,657.826,495.634C657.826,495.634,659.299,494.028,659.299,494.028C659.299,494.028,656.354,494.028,656.354,494.028" class="icon-icons_remove-icon-18"/><glyph unicode="&#x0063;" d="M90.107,704.261C90.107,704.261,910.308,704.261,910.308,704.261C910.308,704.261,910.308,610.285,910.308,610.285C910.308,610.285,965.915,610.285,965.915,610.285C965.915,610.285,965.915,1024,965.915,1024C965.915,1024,34.5,1024,34.5,1024C34.5,1024,34.5,78.684,34.5,78.684C34.5,78.684,268.744,78.684,268.744,78.684C268.744,78.684,268.744,134.291,268.744,134.291C268.744,134.291,90.107,134.291,90.107,134.291C90.107,134.291,90.107,704.261,90.107,704.261M910.308,968.393C910.308,968.393,910.308,759.867,910.308,759.867C910.308,759.867,90.107,759.867,90.107,759.867C90.107,759.867,90.107,968.393,90.107,968.393C90.107,968.393,910.308,968.393,910.308,968.393M698.585,368.395C698.585,368.395,896.406,274.837,896.406,274.837C896.406,274.837,989.826,473.214,989.826,473.214C989.826,473.214,939.64,496.986,939.64,496.986C939.64,496.986,892.236,395.087,892.236,395.087C859.58,479.122,789.794,543.251,703.311,568.719C487.64,626.773,290.013,429.591,347.58,213.794C373.173,117.831,446.074,41.636,540.8,11.816C567.394,4.018,594.961,0.028,622.681,0C695.693,0.125,765.952,27.942,819.252,77.85C819.252,77.85,781.439,118.721,781.439,118.721C649.317,-4.157,433.729,62.085,393.373,237.942C353.03,413.798,518.182,567.384,690.661,514.405C764.368,491.759,822.227,434.303,845.387,360.749C845.387,360.749,722.357,418.72,722.357,418.72C722.357,418.72,698.585,368.395,698.585,368.395" class="icon-icons_reschedule-icon"/><glyph unicode="&#x0064;" d="M902.783,786.37C902.783,786.37,642.299,1024.5,642.299,1024.5C642.299,1024.5,638.417,1020.083,638.417,1020.083C638.417,1020.083,122,1020.083,122,1020.083C122,1020.083,122,4.114,122,4.114C122,4.114,431.877,4.114,431.877,4.114C431.877,4.114,431.877,57.657,431.877,57.657C431.877,57.657,175.542,57.657,175.542,57.657C175.542,57.657,175.542,966.273,175.542,966.273C175.542,966.273,586.213,966.273,586.213,966.273C586.213,966.273,586.213,728.544,586.213,728.544C586.213,728.544,846.698,728.544,846.698,728.544C846.698,728.544,846.698,573.538,846.698,573.538C846.698,573.538,900.24,573.538,900.24,573.538C900.24,573.538,900.24,782.086,900.24,782.086C900.24,782.086,898.901,782.086,898.901,782.086C898.901,782.086,902.783,786.37,902.783,786.37M639.756,954.092C639.756,954.092,828.092,782.086,828.092,782.086C828.092,782.086,639.756,782.086,639.756,782.086C639.756,782.086,639.756,954.092,639.756,954.092M423.043,176.119C423.043,176.119,460.79,138.238,460.79,138.238C460.79,138.238,634.803,312.251,634.803,312.251C634.803,312.251,634.803,0.5,634.803,0.5C634.803,0.5,688.346,0.5,688.346,0.5C688.346,0.5,688.346,304.487,688.346,304.487C688.346,304.487,854.461,138.238,854.461,138.238C854.461,138.238,892.342,176.119,892.342,176.119C892.342,176.119,657.826,410.635,657.826,410.635C657.826,410.635,423.043,176.119,423.043,176.119M656.354,333.534C656.354,333.534,657.826,335.007,657.826,335.007C657.826,335.007,659.299,333.534,659.299,333.534C659.299,333.534,656.354,333.534,656.354,333.534M423.31,403.675C423.31,403.675,461.058,365.794,461.058,365.794C461.058,365.794,657.826,562.562,657.826,562.562C657.826,562.562,854.461,365.794,854.461,365.794C854.461,365.794,892.342,403.675,892.342,403.675C892.342,403.675,657.826,638.191,657.826,638.191C657.826,638.191,423.31,403.675,423.31,403.675C423.31,403.675,423.31,403.675,423.31,403.675" class="icon-icons_Resubmit-icon"/><glyph unicode="&#x0065;" d="M698.406,96.149C698.406,96.149,698.406,493.977,698.406,493.977C698.406,493.977,646.774,493.977,646.774,493.977C646.774,493.977,646.774,102.474,646.774,102.474C646.774,102.474,509.044,240.204,509.044,240.204C509.044,240.204,472.643,203.674,472.643,203.674C472.643,203.674,675.688,0.5,675.688,0.5C675.688,0.5,878.861,203.674,878.861,203.674C878.861,203.674,842.332,240.204,842.332,240.204C842.332,240.204,698.406,96.149,698.406,96.149C698.406,96.149,698.406,96.149,698.406,96.149M888.93,794.865C888.93,794.865,637.738,1024.5,637.738,1024.5C637.738,1024.5,633.995,1020.24,633.995,1020.24C633.995,1020.24,136,1020.24,136,1020.24C136,1020.24,136,40.515,136,40.515C136,40.515,434.823,40.515,434.823,40.515C434.823,40.515,434.823,92.148,434.823,92.148C434.823,92.148,187.632,92.148,187.632,92.148C187.632,92.148,187.632,968.35,187.632,968.35C187.632,968.35,583.653,968.35,583.653,968.35C583.653,968.35,583.653,739.102,583.653,739.102C583.653,739.102,834.845,739.102,834.845,739.102C834.845,739.102,834.845,589.755,834.845,589.755C834.845,589.755,886.477,589.755,886.477,589.755C886.477,589.755,886.477,790.734,886.477,790.734C886.477,790.734,885.186,790.734,885.186,790.734C885.186,790.734,888.93,794.865,888.93,794.865M635.286,956.603C635.286,956.603,816.903,790.734,816.903,790.734C816.903,790.734,635.286,790.734,635.286,790.734C635.286,790.734,635.286,956.603,635.286,956.603M284.314,701.797C284.314,701.797,284.314,650.165,284.314,650.165C284.314,650.165,516.66,650.165,516.66,650.165C516.66,650.165,516.66,701.797,516.66,701.797C516.66,701.797,284.314,701.797,284.314,701.797M284.314,559.808C284.314,559.808,284.314,508.176,284.314,508.176C284.314,508.176,516.66,508.176,516.66,508.176C516.66,508.176,516.66,559.808,516.66,559.808C516.66,559.808,284.314,559.808,284.314,559.808M284.314,417.819C284.314,417.819,284.314,366.187,284.314,366.187C284.314,366.187,516.66,366.187,516.66,366.187C516.66,366.187,516.66,417.819,516.66,417.819C516.66,417.819,284.314,417.819,284.314,417.819" class="icon-icons_return-more-details-icon"/><glyph unicode="&#x0066;" d="M145.061,706.297C145.061,706.297,283.402,706.297,283.402,706.297C283.402,706.297,283.402,761.358,283.402,761.358C283.402,761.358,145.061,761.358,145.061,761.358C145.061,761.358,145.061,968.939,145.061,968.939C145.061,968.939,832.5,968.939,832.5,968.939C832.5,968.939,832.5,578.418,832.5,578.418C832.5,578.418,887.561,578.418,887.561,578.418C887.561,578.418,887.561,1024,887.561,1024C887.561,1024,90,1024,90,1024C90,1024,90,0,90,0C90,0,500.756,0,500.756,0C500.756,0,500.756,55.061,500.756,55.061C500.756,55.061,145.061,55.061,145.061,55.061C145.061,55.061,145.061,706.297,145.061,706.297C145.061,706.297,145.061,706.297,145.061,706.297M785.835,346.335C785.835,346.335,747.017,307.379,747.017,307.379C747.017,307.379,827.957,226.439,827.957,226.439C827.957,226.439,571.097,226.439,571.097,226.439C392.974,226.439,281.64,419.263,370.702,573.531C412.039,645.124,488.423,689.228,571.097,689.228C571.097,689.228,661.948,689.228,661.948,689.228C661.948,689.228,661.948,744.289,661.948,744.289C661.948,744.289,571.097,744.289,571.097,744.289C350.577,744.289,212.759,505.572,323.019,314.606C374.184,225.971,468.752,171.378,571.097,171.378C571.097,171.378,830.986,171.378,830.986,171.378C830.986,171.378,748.394,88.786,748.394,88.786C748.394,88.786,787.35,49.83,787.35,49.83C787.35,49.83,934.914,197.394,934.914,197.394C934.914,197.394,785.835,346.335,785.835,346.335" class="icon-icons_route-application-icon"/><glyph unicode="&#x0067;" d="M643.118,1024C643.118,1024,63,1024,63,1024C63,1024,63,0,63,0C63,0,961.152,0,961.152,0C961.152,0,961.152,735.648,961.152,735.648C961.152,735.648,643.118,1024,643.118,1024M620.264,964.638C620.264,964.638,878.49,730.453,878.49,730.453C878.49,730.453,122.362,730.453,122.362,730.453C122.362,730.453,122.362,964.638,122.362,964.638C122.362,964.638,620.264,964.638,620.264,964.638M122.362,59.362C122.362,59.362,122.362,671.091,122.362,671.091C122.362,671.091,901.79,671.091,901.79,671.091C901.79,671.091,901.79,59.362,901.79,59.362C901.79,59.362,122.362,59.362,122.362,59.362M302.379,464.807C302.379,464.807,302.379,405.445,302.379,405.445C302.379,405.445,735.723,405.445,735.723,405.445C735.723,405.445,735.723,464.807,735.723,464.807C735.723,464.807,302.379,464.807,302.379,464.807M302.379,296.96C302.379,296.96,302.379,237.598,302.379,237.598C302.379,237.598,735.723,237.598,735.723,237.598C735.723,237.598,735.723,296.96,735.723,296.96C735.723,296.96,302.379,296.96,302.379,296.96" class="icon-icons_save-icon"/><glyph unicode="&#x0068;" d="M8,1024.5C8,1024.5,8,0.5,8,0.5C8,0.5,1016.941,0.5,1016.941,0.5C1016.941,0.5,1016.941,1024.5,1016.941,1024.5C1016.941,1024.5,8,1024.5,8,1024.5M956.706,964.265C956.706,964.265,956.706,738.382,956.706,738.382C956.706,738.382,68.235,738.382,68.235,738.382C68.235,738.382,68.235,964.265,68.235,964.265C68.235,964.265,956.706,964.265,956.706,964.265M68.235,60.735C68.235,60.735,68.235,678.147,68.235,678.147C68.235,678.147,956.706,678.147,956.706,678.147C956.706,678.147,956.706,60.735,956.706,60.735C956.706,60.735,68.235,60.735,68.235,60.735M374.833,576.349C340.89,578.066,308.213,563.324,287.04,536.745C261.636,504.624,248.941,452.114,248.941,379.229C248.941,306.345,260.491,254.648,283.576,224.124C305.367,196.024,339.294,180.061,374.833,181.206C408.715,179.534,441.333,194.277,462.475,220.811C487.88,252.931,500.574,305.637,500.574,378.928C500.574,452.22,487.97,504.624,462.776,536.142C441.694,562.992,408.926,577.976,374.833,576.349C374.833,576.349,374.833,576.349,374.833,576.349M414.588,281.648C412.299,270.173,406.577,259.677,398.174,251.531C391.458,245.929,382.98,242.887,374.231,242.947C365.496,242.796,357.003,245.793,350.287,251.38C341.207,260.656,335.168,272.477,332.969,285.262C327.127,316.178,324.808,347.651,326.042,379.079C324.883,411.591,327.458,444.133,333.722,476.058C336.011,487.532,341.734,498.028,350.136,506.175C356.898,511.792,365.436,514.834,374.231,514.759C382.935,514.834,391.368,511.792,398.024,506.175C407.074,496.824,413.097,484.957,415.341,472.142C421.184,441.287,423.503,409.859,422.268,378.476C423.458,346.01,420.883,313.513,414.588,281.648C414.588,281.648,414.588,281.648,414.588,281.648M633.242,514.458C614.419,498.902,593.08,486.689,570.146,478.316C570.146,478.316,570.146,410.853,570.146,410.853C605.85,422.478,638.588,441.739,666.071,467.324C666.071,467.324,666.071,187.229,666.071,187.229C666.071,187.229,740.311,187.229,740.311,187.229C740.311,187.229,740.311,576.349,740.311,576.349C740.311,576.349,680.075,576.349,680.075,576.349C670.829,551.593,654.551,530.089,633.242,514.458C633.242,514.458,633.242,514.458,633.242,514.458" class="icon-icons_schedule-icon"/><glyph unicode="&#x0069;" d="M1024,609.228C1024,609.228,1024,1008.726,1024,1008.726C1024,1008.726,624.917,1008.726,624.917,1008.726C624.917,1008.726,624.917,842.672,624.917,842.672C624.917,842.672,399.083,842.672,399.083,842.672C399.083,842.672,399.083,1008.726,399.083,1008.726C399.083,1008.726,0,1008.726,0,1008.726C0,1008.726,0,609.228,0,609.228C0,609.228,166.054,609.228,166.054,609.228C166.054,609.228,166.054,415.498,166.054,415.498C166.054,415.498,0,415.498,0,415.498C0,415.498,0,16,0,16C0,16,399.083,16,399.083,16C399.083,16,399.083,192.986,399.083,192.986C399.083,192.986,624.917,192.986,624.917,192.986C624.917,192.986,624.917,16,624.917,16C624.917,16,1024,16,1024,16C1024,16,1024,415.498,1024,415.498C1024,415.498,846.876,415.498,846.876,415.498C846.876,415.498,846.876,609.228,846.876,609.228C846.876,609.228,1024,609.228,1024,609.228M680.268,953.375C680.268,953.375,968.649,953.375,968.649,953.375C968.649,953.375,968.649,664.579,968.649,664.579C968.649,664.579,680.268,664.579,680.268,664.579C680.268,664.579,680.268,953.375,680.268,953.375M55.351,953.375C55.351,953.375,343.732,953.375,343.732,953.375C343.732,953.375,343.732,664.579,343.732,664.579C343.732,664.579,55.351,664.579,55.351,664.579C55.351,664.579,55.351,953.375,55.351,953.375M343.732,71.351C343.732,71.351,55.351,71.351,55.351,71.351C55.351,71.351,55.351,360.147,55.351,360.147C55.351,360.147,343.732,360.147,343.732,360.147C343.732,360.147,343.732,71.351,343.732,71.351M968.649,71.351C968.649,71.351,680.268,71.351,680.268,71.351C680.268,71.351,680.268,360.147,680.268,360.147C680.268,360.147,968.649,360.147,968.649,360.147C968.649,360.147,968.649,71.351,968.649,71.351M791.524,415.498C791.524,415.498,625.47,415.498,625.47,415.498C625.47,415.498,625.47,249.444,625.47,249.444C625.47,249.444,399.083,249.444,399.083,249.444C399.083,249.444,399.083,415.498,399.083,415.498C399.083,415.498,221.405,415.498,221.405,415.498C221.405,415.498,221.405,609.228,221.405,609.228C221.405,609.228,398.53,609.228,398.53,609.228C398.53,609.228,398.53,786.768,398.53,786.768C398.53,786.768,624.917,786.768,624.917,786.768C624.917,786.768,624.917,609.228,624.917,609.228C624.917,609.228,790.971,609.228,790.971,609.228C790.971,609.228,791.524,415.498,791.524,415.498" class="icon-icons_scheme-icon"/><glyph unicode="&#x006a;" d="M974.049,842.427C974.049,842.427,1024,842.427,1024,842.427C1024,942.654,942.779,1023.925,842.552,1024C842.552,1024,842.552,974.049,842.552,974.049C915.194,973.974,974.049,915.069,974.049,842.427C974.049,842.427,974.049,842.427,974.049,842.427M181.448,974.049C181.448,974.049,181.448,1024,181.448,1024C81.221,1023.925,0,942.654,0,842.427C0,842.427,49.951,842.427,49.951,842.427C49.951,915.069,108.806,973.974,181.448,974.049C181.448,974.049,181.448,974.049,181.448,974.049M974.049,181.448C973.974,108.856,915.144,50.026,842.552,49.951C842.552,49.951,811.707,49.951,811.707,49.951C811.707,49.951,811.707,245.51,811.707,245.51C811.72,305.464,790.64,363.508,752.14,409.475C752.14,409.475,713.803,377.381,713.803,377.381C744.785,340.43,761.769,293.738,761.756,245.51C761.756,245.51,761.756,49.951,761.756,49.951C761.756,49.951,262.244,49.951,262.244,49.951C262.244,49.951,262.244,245.51,262.244,245.51C262.544,333.836,319.101,412.148,402.857,440.195C600.151,355.128,815.554,515.534,790.578,728.938C765.602,942.33,518.981,1048.663,346.661,920.339C195.959,808.111,196.97,582.044,348.66,471.165C265.091,426.833,212.68,340.118,212.293,245.51C212.293,245.51,212.293,49.951,212.293,49.951C212.293,49.951,181.448,49.951,181.448,49.951C108.856,50.026,50.026,108.856,49.951,181.448C49.951,181.448,49.951,233.647,49.951,233.647C49.951,233.647,0,233.647,0,233.647C0,233.647,0,181.448,0,181.448C0.137,81.296,81.296,0.137,181.448,0C181.448,0,233.772,0,233.772,0C233.772,0,233.772,0,233.772,0C233.772,0,790.228,0,790.228,0C790.228,0,790.228,0,790.228,0C790.228,0,842.552,0,842.552,0C942.704,0.137,1023.863,81.296,1024,181.448C1024,181.448,1024,233.647,1024,233.647C1024,233.647,974.049,233.647,974.049,233.647C974.049,233.647,974.049,181.448,974.049,181.448M284.222,695.571C284.222,870.912,474.037,980.505,625.889,892.828C777.74,805.164,777.74,585.978,625.889,498.313C591.26,478.32,551.986,467.793,512,467.793C386.26,467.931,284.36,569.831,284.222,695.571C284.222,695.571,284.222,695.571,284.222,695.571" class="icon-icons_self-icon"/><glyph unicode="&#x006b;" d="M779.285,55.061C779.285,55.061,105.061,55.061,105.061,55.061C105.061,55.061,105.061,706.297,105.061,706.297C105.061,706.297,517.332,706.297,517.332,706.297C517.332,706.297,517.332,761.358,517.332,761.358C517.332,761.358,105.061,761.358,105.061,761.358C105.061,761.358,105.061,968.939,105.061,968.939C105.061,968.939,820.168,968.939,820.168,968.939C820.168,968.939,820.168,1024,820.168,1024C820.168,1024,50,1024,50,1024C50,1024,50,0,50,0C50,0,834.346,0,834.346,0C834.346,0,834.346,392.724,834.346,392.724C834.346,392.724,779.285,392.724,779.285,392.724C779.285,392.724,779.285,55.061,779.285,55.061C779.285,55.061,779.285,55.061,779.285,55.061M240.787,204.415C240.787,204.415,390.14,200.01,390.14,200.01C390.14,200.01,974.89,735.342,974.89,735.342C974.89,735.342,844.257,879.464,844.257,879.464C844.257,879.464,260.058,345.371,260.058,345.371C260.058,345.371,240.787,204.415,240.787,204.415M897.391,738.921C897.391,738.921,740.054,595.074,740.054,595.074C740.054,595.074,683.203,657.706,683.203,657.706C683.203,657.706,840.541,801.553,840.541,801.553C840.541,801.553,897.391,738.921,897.391,738.921M311.953,318.116C311.953,318.116,642.32,620.952,642.32,620.952C642.32,620.952,699.584,557.907,699.584,557.907C699.584,557.907,369.217,256.034,369.217,256.034C369.217,256.034,303.557,257.824,303.557,257.824C303.557,257.824,311.953,318.116,311.953,318.116" class="icon-icons_submit-appeal-icon"/><glyph unicode="&#x006c;" d="M867.223,465.722C864.819,468.393,862.282,470.797,859.744,473.335C859.744,473.335,859.744,1024,859.744,1024C859.744,1024,85.5,1024,85.5,1024C85.5,1024,85.5,30.452,85.5,30.452C85.5,30.452,532.924,30.452,532.924,30.452C571.082,10.444,613.514,0,656.6,0C656.6,0,662.076,0,662.076,0C730.485,1.496,796.196,26.966,847.724,71.989C961.623,175.43,970.344,351.528,867.223,465.722C867.223,465.722,867.223,465.722,867.223,465.722M806.721,970.576C806.721,970.576,806.721,769.169,806.721,769.169C806.721,769.169,138.924,769.169,138.924,769.169C138.924,769.169,138.924,970.576,138.924,970.576C138.924,970.576,806.721,970.576,806.721,970.576M812.597,111.522C770.713,75.06,717.33,54.506,661.809,53.424C623.357,52.329,585.306,61.558,551.622,80.136C551.622,80.136,551.622,83.208,551.622,83.208C551.622,83.208,546.547,83.208,546.547,83.208C527.141,94.934,509.591,109.465,494.459,126.347C444.187,182.148,424.915,259.279,443.039,332.162C443.039,332.162,514.626,222.911,514.626,222.911C514.626,222.911,559.369,252.16,559.369,252.16C559.369,252.16,443.439,429.126,443.439,429.126C443.439,429.126,267.274,313.597,267.274,313.597C267.274,313.597,296.524,268.855,296.524,268.855C296.524,268.855,386.944,328.155,386.944,328.155C371.451,242.891,396.413,155.249,454.525,90.954C456.795,88.283,459.466,86.012,461.87,83.608C461.87,83.608,138.924,83.608,138.924,83.608C138.924,83.608,138.924,715.745,138.924,715.745C138.924,715.745,806.721,715.745,806.721,715.745C806.721,715.745,806.721,515.406,806.721,515.406C746.859,552.215,675.218,564.823,606.382,550.665C606.382,550.665,616.933,498.31,616.933,498.31C786.754,532.568,929.969,370.133,874.729,205.935C862.469,169.5,841.072,136.818,812.597,110.988C812.597,110.988,812.597,111.522,812.597,111.522" class="icon-icons_submit-cr-icon"/><glyph unicode="&#x006d;" d="M113.5,1024C113.5,1024,113.5,0,113.5,0C113.5,0,524.256,0,524.256,0C524.256,0,524.256,55.061,524.256,55.061C524.256,55.061,168.561,55.061,168.561,55.061C168.561,55.061,168.561,706.297,168.561,706.297C168.561,706.297,856,706.297,856,706.297C856,706.297,856,578.418,856,578.418C856,578.418,911.061,578.418,911.061,578.418C911.061,578.418,911.061,1024,911.061,1024C911.061,1024,113.5,1024,113.5,1024M168.561,761.358C168.561,761.358,168.561,968.939,168.561,968.939C168.561,968.939,856,968.939,856,968.939C856,968.939,856,761.358,856,761.358C856,761.358,168.561,761.358,168.561,761.358M489.981,336.561C489.981,336.561,528.799,297.606,528.799,297.606C528.799,297.606,670.719,439.526,670.719,439.526C670.719,439.526,670.719,9.223,670.719,9.223C670.719,9.223,725.78,9.223,725.78,9.223C725.78,9.223,725.78,433.194,725.78,433.194C725.78,433.194,861.368,297.606,861.368,297.606C861.368,297.606,900.324,336.561,900.324,336.561C900.324,336.561,695.084,541.802,695.084,541.802C695.084,541.802,489.981,336.561,489.981,336.561C489.981,336.561,489.981,336.561,489.981,336.561" class="icon-icons_submit-new-application-icon"/><glyph unicode="&#x006e;" d="M820.551,647.84C820.551,647.84,263.666,138.598,263.666,138.598C263.666,138.598,245.16,4.2,245.16,4.2C245.16,4.2,387.695,0,387.695,0C387.695,0,945.236,510.423,945.236,510.423C945.236,510.423,820.551,647.84,820.551,647.84M871.213,513.836C871.213,513.836,721.327,376.682,721.327,376.682C721.327,376.682,667.122,436.399,667.122,436.399C667.122,436.399,817.138,573.553,817.138,573.553C817.138,573.553,871.213,513.836,871.213,513.836M367.877,53.418C367.877,53.418,305.14,55.124,305.14,55.124C305.14,55.124,313.146,112.611,313.146,112.611C313.146,112.611,628.141,401.356,628.141,401.356C628.141,401.356,682.609,341.245,682.609,341.245C682.609,341.245,367.877,53.418,367.877,53.418M393.995,439.418C618.993,439.09,759.993,682.45,647.776,877.471C535.559,1072.506,254.308,1072.926,141.513,878.232C66.518,748.769,101.391,583.568,222.323,495.461C134.439,448.907,79.354,357.742,79,258.296C79,258.296,79,26.25,79,26.25C79,26.25,131.499,26.25,131.499,26.25C131.499,26.25,131.499,258.296,131.499,258.296C131.814,351.128,191.256,433.433,279.284,462.911C315.535,447.372,354.555,439.379,393.995,439.418C393.995,439.418,393.995,439.418,393.995,439.418M154.599,731.313C154.599,915.599,354.096,1030.782,513.693,938.633C673.291,846.497,673.291,616.13,513.693,523.994C477.298,502.981,436.021,491.917,393.995,491.917C261.841,492.062,154.743,599.16,154.599,731.313C154.599,731.313,154.599,731.313,154.599,731.313M656.491,53.024C656.491,53.024,533.38,53.024,533.38,53.024C533.38,53.024,533.38,0.525,533.38,0.525C533.38,0.525,708.99,0.525,708.99,0.525C708.99,0.525,708.99,169.179,708.99,169.179C708.99,169.179,656.491,169.179,656.491,169.179C656.491,169.179,656.491,53.024,656.491,53.024C656.491,53.024,656.491,53.024,656.491,53.024" class="icon-icons_support-appeal-icon"/><glyph unicode="&#x006f;" d="M638.3,775.552C638.3,775.552,638.3,896,638.3,896C638.3,896,65.5,1024,65.5,1024C65.5,1024,65.5,611.328,65.5,611.328C65.5,611.328,116.7,611.328,116.7,611.328C116.7,611.328,116.7,774.912,116.7,774.912C116.7,774.912,406.62,707.328,406.62,707.328C406.62,707.328,406.62,341.504,406.62,341.504C406.62,341.504,457.82,341.504,457.82,341.504C457.82,341.504,457.82,516.992,457.82,516.992C457.82,516.992,908.124,595.712,908.124,595.712C908.124,595.712,908.124,64,908.124,64C908.124,64,618.332,128,618.332,128C618.332,128,607.196,78.08,607.196,78.08C607.196,78.08,959.324,0,959.324,0C959.324,0,959.324,846.976,959.324,846.976C959.324,846.976,638.3,775.552,638.3,775.552M116.7,960C116.7,960,587.1,855.424,587.1,855.424C587.1,855.424,587.1,764.16,587.1,764.16C587.1,764.16,484.7,741.376,484.7,741.376C484.7,741.376,484.7,741.376,484.7,741.376C484.7,741.376,117.084,827.136,117.084,827.136C117.084,827.136,116.7,960,116.7,960M457.82,568.96C457.82,568.96,457.82,683.008,457.82,683.008C457.82,683.008,908.124,783.104,908.124,783.104C908.124,783.104,908.124,647.68,908.124,647.68C908.124,647.68,457.82,568.96,457.82,568.96M683.356,243.2C683.356,243.2,734.556,241.28,734.556,241.28C734.556,241.28,741.34,413.312,741.34,413.312C741.34,413.312,568.156,420.096,568.156,420.096C568.156,420.096,566.236,368.896,566.236,368.896C566.236,368.896,650.716,365.568,650.716,365.568C650.716,365.568,504.156,230.4,504.156,230.4C400.246,134.323,231.311,186.765,200.066,324.787C185.564,388.838,206.338,455.77,254.556,500.352C254.556,500.352,308.572,550.4,308.572,550.4C308.572,550.4,273.756,587.776,273.756,587.776C273.756,587.776,219.612,537.6,219.612,537.6C86.748,414.822,136.617,194.253,309.378,140.582C329.014,134.477,349.353,130.982,369.884,130.176C369.884,130.176,379.356,130.176,379.356,130.176C438.338,129.894,495.247,151.987,538.588,192C538.588,192,687.068,329.216,687.068,329.216C687.068,329.216,683.356,243.2,683.356,243.2" class="icon-icons_switch-icon"/><glyph unicode="&#x0070;" d="M169.694,711.299C169.694,711.299,847.122,711.299,847.122,711.299C847.122,711.299,847.122,585.433,847.122,585.433C847.122,585.433,901.316,585.433,901.316,585.433C901.316,585.433,901.316,1024,901.316,1024C901.316,1024,115.5,1024,115.5,1024C115.5,1024,115.5,16.123,115.5,16.123C115.5,16.123,384.439,16.123,384.439,16.123C384.439,16.123,384.439,70.317,384.439,70.317C384.439,70.317,169.694,70.317,169.694,70.317C169.694,70.317,169.694,711.299,169.694,711.299M847.122,969.806C847.122,969.806,847.122,765.494,847.122,765.494C847.122,765.494,169.694,765.494,169.694,765.494C169.694,765.494,169.694,969.806,169.694,969.806C169.694,969.806,847.122,969.806,847.122,969.806M488.898,483.954C488.898,483.954,488.898,0,488.898,0C488.898,0,698.901,203.228,698.901,203.228C698.901,203.228,908.904,0,908.904,0C908.904,0,908.904,483.954,908.904,483.954C908.904,483.954,488.898,483.954,488.898,483.954M854.709,127.898C854.709,127.898,698.901,278.829,698.901,278.829C698.901,278.829,543.092,127.898,543.092,127.898C543.092,127.898,543.092,429.76,543.092,429.76C543.092,429.76,854.709,429.76,854.709,429.76C854.709,429.76,854.709,127.898,854.709,127.898" class="icon-icons_tag-application-icon"/><glyph unicode="&#x0071;" d="M168.965,706.851C168.965,706.851,856.029,706.851,856.029,706.851C856.029,706.851,856.029,503.755,856.029,503.755C856.029,503.755,910.994,503.755,910.994,503.755C910.994,503.755,910.994,1024,910.994,1024C910.994,1024,114,1024,114,1024C114,1024,114,1.924,114,1.924C114,1.924,388.826,0,388.826,0C388.826,0,388.826,54.965,388.826,54.965C388.826,54.965,168.965,56.477,168.965,56.477C168.965,56.477,168.965,706.851,168.965,706.851M856.029,969.035C856.029,969.035,856.029,761.816,856.029,761.816C856.029,761.816,168.965,761.816,168.965,761.816C168.965,761.816,168.965,969.035,168.965,969.035C168.965,969.035,856.029,969.035,856.029,969.035M842.288,415.536C842.288,415.536,684.263,257.512,684.263,257.512C684.263,257.512,526.376,415.536,526.376,415.536C526.376,415.536,487.488,376.648,487.488,376.648C487.488,376.648,645.375,218.761,645.375,218.761C645.375,218.761,487.488,60.736,487.488,60.736C487.488,60.736,526.376,21.849,526.376,21.849C526.376,21.849,684.263,179.873,684.263,179.873C684.263,179.873,842.288,21.849,842.288,21.849C842.288,21.849,881.038,60.736,881.038,60.736C881.038,60.736,723.151,218.761,723.151,218.761C723.151,218.761,881.038,376.648,881.038,376.648C881.038,376.648,842.288,415.536,842.288,415.536C842.288,415.536,842.288,415.536,842.288,415.536" class="icon-icons_terminate-icon"/><glyph unicode="&#x0072;" d="M920.765,476.407C920.765,476.407,594.693,150.335,594.693,150.335C594.693,150.335,437.705,332.165,437.705,332.165C437.705,332.165,398.295,298.088,398.295,298.088C398.295,298.088,591.962,73.987,591.962,73.987C591.962,73.987,957.574,439.599,957.574,439.599C957.574,439.599,920.765,476.407,920.765,476.407C920.765,476.407,920.765,476.407,920.765,476.407M118.526,550.934C118.526,550.934,118.526,691.924,118.526,691.924C118.526,691.924,855.213,691.924,855.213,691.924C855.213,691.924,855.213,551.454,855.213,551.454C855.213,551.454,907.239,551.454,907.239,551.454C907.239,551.454,907.239,913.815,907.239,913.815C907.239,913.815,486.869,1024.5,486.869,1024.5C486.869,1024.5,66.5,913.815,66.5,913.815C66.5,913.815,66.5,550.934,66.5,550.934C66.864,398.368,128.489,252.344,237.535,145.652C237.535,145.652,239.616,143.571,239.616,143.571C239.616,143.571,473.733,0.5,473.733,0.5C473.733,0.5,500.916,44.722,500.916,44.722C500.916,44.722,271.872,184.672,271.872,184.672C174.025,281.466,118.825,413.3,118.526,550.934C118.526,550.934,118.526,550.934,118.526,550.934M486.869,970.653C486.869,970.653,855.213,874.015,855.213,874.015C855.213,874.015,855.213,743.95,855.213,743.95C855.213,743.95,118.526,743.95,118.526,743.95C118.526,743.95,118.526,874.015,118.526,874.015C118.526,874.015,486.869,970.653,486.869,970.653" class="icon-icons_verify-icon"/><glyph unicode="&#x0073;" d="M862.916,481.898C862.916,481.898,862.916,1024,862.916,1024C862.916,1024,80,1024,80,1024C80,1024,80,19.843,80,19.843C80,19.843,550.694,19.843,550.694,19.843C550.694,19.843,550.694,22.138,550.694,22.138C585.412,7.465,622.736,-0.067,660.437,0C878.655,-0.027,1015.071,236.171,905.989,425.164C894.07,445.817,879.6,464.877,862.916,481.898C862.916,481.898,862.916,481.898,862.916,481.898M430.962,283.47C431.894,460.112,623.708,569.518,776.214,480.387C812.903,458.951,842.924,427.742,862.916,390.243C862.916,390.243,443.246,210.038,443.246,210.038C435.16,233.674,431.016,258.484,430.962,283.47C430.962,283.47,430.962,283.47,430.962,283.47M808.921,970.006C808.921,970.006,808.921,766.448,808.921,766.448C808.921,766.448,133.994,766.448,133.994,766.448C133.994,766.448,133.994,970.006,133.994,970.006C133.994,970.006,808.921,970.006,808.921,970.006M133.994,73.837C133.994,73.837,133.994,712.454,133.994,712.454C133.994,712.454,808.921,712.454,808.921,712.454C808.921,712.454,808.921,524.689,808.921,524.689C620.32,634.446,383.623,498.866,382.88,280.649C382.61,202.452,414.669,127.602,471.458,73.837C471.458,73.837,133.994,73.837,133.994,73.837M660.437,53.995C581.511,54.238,508.241,95.03,466.463,161.983C466.463,161.983,882.623,339.759,882.623,339.759C920.149,194.703,810.271,53.374,660.437,53.995C660.437,53.995,660.437,53.995,660.437,53.995" class="icon-icons_void-icon"/><glyph unicode="&#x0074;" d="M465.329,626.502C465.329,626.502,342.613,507.289,342.613,507.289C342.613,507.289,838.791,0,838.791,0C838.791,0,961.506,118.851,961.506,118.851C961.506,118.851,465.329,626.502,465.329,626.502M464.483,558.26C464.483,558.26,595.171,424.191,595.171,424.191C595.171,424.191,541.905,372.858,541.905,372.858C541.905,372.858,410.614,505.719,410.614,505.719C410.614,505.719,464.483,558.26,464.483,558.26M575.604,338.314C575.604,338.314,628.869,390.009,628.869,390.009C628.869,390.009,893.022,119.213,893.022,119.213C893.022,119.213,839.757,67.639,839.757,67.639C839.757,67.639,575.604,338.314,575.604,338.314M263.742,831.351C263.742,831.351,263.742,747.648,263.742,747.648C263.742,747.648,312.055,747.648,312.055,747.648C312.055,747.648,312.055,831.351,312.055,831.351C312.055,831.351,263.742,831.351,263.742,831.351M329.689,730.014C329.689,730.014,329.689,681.7,329.689,681.7C329.689,681.7,413.392,681.7,413.392,681.7C413.392,681.7,413.392,730.014,413.392,730.014C413.392,730.014,329.689,730.014,329.689,730.014M263.742,669.984C263.742,669.984,263.742,586.282,263.742,586.282C263.742,586.282,312.055,586.282,312.055,586.282C312.055,586.282,312.055,669.984,312.055,669.984C312.055,669.984,263.742,669.984,263.742,669.984M162.405,735.932C162.405,735.932,162.405,687.619,162.405,687.619C162.405,687.619,246.107,687.619,246.107,687.619C246.107,687.619,246.107,735.932,246.107,735.932C246.107,735.932,162.405,735.932,162.405,735.932M111.434,819.756C111.434,819.756,193.204,819.756,193.204,819.756C193.204,819.756,193.204,868.069,193.204,868.069C193.204,868.069,111.434,868.069,111.434,868.069C111.434,868.069,111.434,975.687,111.434,975.687C111.434,975.687,650.973,975.687,650.973,975.687C650.973,975.687,650.973,868.069,650.973,868.069C650.973,868.069,386.457,868.069,386.457,868.069C386.457,868.069,386.457,819.756,386.457,819.756C386.457,819.756,650.973,819.756,650.973,819.756C650.973,819.756,650.973,576.619,650.973,576.619C650.973,576.619,699.286,576.619,699.286,576.619C699.286,576.619,699.286,1024,699.286,1024C699.286,1024,63,1024,63,1024C63,1024,63,270.192,63,270.192C63,270.192,404.696,270.192,404.696,270.192C404.696,270.192,404.696,318.505,404.696,318.505C404.696,318.505,111.434,318.505,111.434,318.505C111.434,318.505,111.434,819.756,111.434,819.756C111.434,819.756,111.434,819.756,111.434,819.756" class="icon-icons_wizard-icon"/></font>
</defs>
</svg>
